<?xml version="1.0" encoding="UTF-8" standalone="no"?>
<svg
   version="1.1"
   width="714.40912"
   height="314.22726"
   id="svg3"
   sodipodi:docname="logo-composite4.svg"
   xml:space="preserve"
   inkscape:version="1.4.3 (0d15f75, 2025-12-25)"
   xmlns:inkscape="http://www.inkscape.org/namespaces/inkscape"
   xmlns:sodipodi="http://sodipodi.sourceforge.net/DTD/sodipodi-0.dtd"
   xmlns="http://www.w3.org/2000/svg"
   xmlns:svg="http://www.w3.org/2000/svg"><sodipodi:namedview
     id="namedview3"
     pagecolor="#ffffff"
     bordercolor="#000000"
     borderopacity="0.25"
     inkscape:showpageshadow="2"
     inkscape:pageopacity="0.0"
     inkscape:pagecheckerboard="false"
     inkscape:deskcolor="#d1d1d1"
     inkscape:zoom="0.70967742"
     inkscape:cx="224.75"
     inkscape:cy="250.11364"
     inkscape:window-width="1522"
     inkscape:window-height="776"
     inkscape:window-x="0"
     inkscape:window-y="76"
     inkscape:window-maximized="0"
     inkscape:current-layer="svg3"
     inkscape:lockguides="false"
     showguides="false" /><defs
     id="defs1"><style
       id="style1">
      @import url('https://fonts.googleapis.com/css2?family=Exo+2:ital,wght@1,800&amp;display=swap');
    </style><clipPath
       clipPathUnits="userSpaceOnUse"
       id="clipPath3"><rect
         style="fill:none;stroke:#252525;stroke-width:1.2"
         id="rect4"
         width="714.40912"
         height="314.22726"
         x="262.09091"
         y="170.5" /></clipPath><clipPath
       clipPathUnits="userSpaceOnUse"
       id="clipPath4"><rect
         style="fill:none;stroke:#252525;stroke-width:1.2"
         id="rect5"
         width="714.40912"
         height="314.22726"
         x="262.09091"
         y="170.5" /></clipPath><clipPath
       clipPathUnits="userSpaceOnUse"
       id="clipPath5"><rect
         style="fill:none;stroke:#252525;stroke-width:1.43278"
         id="rect6"
         width="864.07117"
         height="370.371"
         x="96.055809"
         y="219.93913"
         transform="matrix(0.99996635,0.00820378,-0.00838264,0.99996487,0,0)" /></clipPath><clipPath
       clipPathUnits="userSpaceOnUse"
       id="clipPath6"><rect
         style="fill:none;stroke:#252525;stroke-width:1.2"
         id="rect7"
         width="714.40912"
         height="314.22726"
         x="262.09091"
         y="170.5" /></clipPath></defs><!-- Background --><!-- LL mark (original paths) --><!-- "ano" in Exo 2 italic --><path
     d="m 518.95107,502.78693 q -12.11053,1.00921 -22.70724,2.39688 -10.59672,1.38766 -18.03965,4.03684 -7.69523,2.77533 -11.73208,7.82139 -4.03684,5.04605 -4.03684,13.37204 0,7.31678 5.29836,10.34441 5.42451,2.90148 15.64277,2.90148 6.68602,0 14.2551,-3.02763 7.69523,-3.15378 14.38126,-7.94754 z m -11.98438,51.84821 q -4.28914,2.77533 -10.34441,6.68603 -6.05527,3.91069 -11.22747,6.18141 -7.06448,2.90148 -13.2459,4.4153 -6.18141,1.51382 -17.15658,1.51382 -17.66119,0 -28.88866,-9.83981 -11.10133,-9.96596 -11.10133,-25.86103 0,-16.77813 7.94754,-28.38406 7.94754,-11.73208 23.59031,-18.6704 14.63356,-6.55987 34.81777,-9.46135 20.31037,-2.90148 43.90068,-4.28915 0.12615,-0.75691 0.50461,-2.39688 0.37845,-1.76611 0.37845,-3.91069 0,-8.95675 -8.32599,-12.48898 -8.32599,-3.65839 -24.85182,-3.65839 -11.22747,0 -24.85182,3.78454 -13.4982,3.78454 -20.31037,6.30757 h -4.16299 l 6.68602,-33.55627 q 7.94753,-2.01842 24.59951,-4.54145 16.65199,-2.52302 33.17781,-2.52302 33.30397,0 48.82058,8.70444 15.64277,8.70444 15.64277,26.99639 0,2.52303 -0.5046,6.55987 -0.37846,4.03685 -1.13536,7.06448 l -22.20265,96.37965 h -45.16218 z m 246.94572,-94.61352 q 0,3.78454 -0.5046,8.19984 -0.50461,4.41529 -1.63997,9.20905 l -21.19343,92.21665 h -45.9191 l 16.14738,-70.26632 q 1.76612,-7.82138 2.77533,-13.37204 1.00921,-5.55066 1.00921,-10.34441 0,-8.19984 -4.163,-11.98438 -4.16299,-3.78454 -15.26431,-3.78454 -5.42451,0 -12.48899,2.39687 -7.06447,2.27073 -15.89507,6.93833 l -23.0857,100.41649 h -45.6668 l 32.67321,-141.66799 h 45.66679 l -3.65839,15.64277 q 14.00281,-9.20905 25.48258,-14.38126 11.60593,-5.1722 25.48258,-5.1722 19.04885,0 29.64557,9.20905 10.59671,9.20905 10.59671,26.74409 z m 179.32858,19.80576 q 0,19.93192 -6.68602,37.34081 -6.68602,17.40889 -18.79655,29.89787 -12.61514,12.99359 -29.26712,20.05807 -16.65198,6.93832 -38.85462,6.93832 -31.66399,0 -48.56828,-15.13816 -16.90428,-15.13816 -16.90428,-41.88225 0,-18.92271 6.30757,-35.95314 6.30757,-17.03044 18.6704,-30.02403 11.98438,-12.74129 29.39327,-20.05807 17.53504,-7.44293 39.23307,-7.44293 31.79015,0 48.56828,15.01201 16.90428,14.88587 16.90428,41.2515 z m -59.03884,46.42371 q 5.80297,-8.8306 8.70445,-19.30116 3.02763,-10.47057 3.02763,-25.48258 0,-12.99359 -5.67681,-19.93192 -5.67681,-7.06447 -18.03965,-7.06447 -9.5875,0 -16.90428,4.6676 -7.19063,4.6676 -12.74129,13.24589 -5.1722,7.94754 -8.19984,19.67961 -2.90148,11.73208 -2.90148,24.09492 0,14.5074 6.43372,20.81497 6.43372,6.18142 17.66119,6.18142 8.19984,0 15.76892,-4.4153 7.56909,-4.54145 12.86744,-12.48898 z"
     id="text2"
     style="font-style:italic;font-weight:800;font-size:258.358px;font-family:'Exo 2', sans-serif;letter-spacing:-2.20323;white-space:pre;inline-size:638.656;fill:#e87028;stroke-width:1.39653"
     transform="matrix(0.82676524,-0.00696019,0.00693072,0.84838365,-79.418392,-186.59904)"
     aria-label="ano"
     clip-path="url(#clipPath5)" /><!-- Tagline --><text
     x="331.18179"
     y="514.59094"
     font-family="'Exo 2', sans-serif"
     font-weight="700"
     font-size="44px"
     fill="#ffffff"
     text-anchor="middle"
     letter-spacing="10"
     id="text3" /><path
     id="path8"
     style="fill:#e87028;fill-opacity:1;stroke-width:0.345534"
     d="m 366.72141,251.5815 c -8.7894,6.75523 -17.57831,13.51298 -26.36523,20.27149 -1.05841,0.8142 -2.11737,1.62718 -3.17579,2.4414 -0.21754,0.16702 -0.42774,0.3298 -0.63867,0.49219 -3.42551,2.63465 -6.85278,5.26895 -10.27929,7.90235 -1.66197,1.27725 -3.32465,2.55441 -4.98633,3.83203 -1.86411,1.43325 -3.72817,2.86688 -5.5918,4.30078 -2.17292,1.67181 -4.34522,3.34368 -6.51953,5.01367 -1.50373,1.15515 -3.00717,2.31017 -4.50977,3.4668 -0.69592,0.53589 -1.39177,1.07177 -2.08789,1.60742 -0.97651,0.74937 -1.9527,1.49865 -2.92773,2.25 -0.29728,0.22919 -0.58641,0.45147 -0.875,0.67383 -0.28304,0.2165 -0.55706,0.42693 -0.83203,0.63671 -0.62288,0.4819 -0.62289,0.48118 -0.7461,0.57618 -0.22112,0.16993 -0.43587,0.33496 -0.65039,0.5 l -0.002,0.002 c -0.53747,0.47679 -0.53781,0.47742 -0.50781,2.97852 0.004,0.30305 0.009,0.59646 0.0117,0.89062 0.0341,2.63465 0.0843,5.26813 0.14257,7.90234 0.0547,2.47265 0.0981,4.94489 0.12696,7.41797 0.0433,3.84594 0.10846,7.69188 0.19336,11.53711 0.0378,1.69259 0.0746,3.38546 0.10937,5.07813 0.0426,2.04522 0.0842,4.0896 0.12891,6.13476 0.0714,3.24205 0.14394,6.48393 0.18164,9.72657 0.0382,3.45681 0.10253,6.91294 0.17773,10.36914 0.0459,2.05281 0.088,4.10534 0.13086,6.1582 0.0349,1.69599 0.0699,3.39199 0.10743,5.08789 0.0772,3.45744 0.14865,6.91495 0.18945,10.37305 0.0438,3.84684 0.10846,7.69291 0.19336,11.53906 0.0378,1.6926 0.0746,3.38544 0.10937,5.07812 0.0427,2.0452 0.0842,4.0896 0.12891,6.13477 0.0714,3.24202 0.14394,6.48392 0.18164,9.72656 0.0382,3.45681 0.10253,6.91292 0.17773,10.36914 0.0373,1.71412 0.0742,3.42838 0.10938,5.14258 0.0427,2.04394 0.0843,4.08698 0.1289,6.13086 0.02,0.87074 0.0204,0.87089 0.0234,1.04297 0.0153,0.69075 0.0299,1.38149 0.0449,2.07227 0.0374,1.66612 0.0752,3.33151 0.0879,4.99804 0.003,0.82294 0.003,0.82374 0.004,0.98633 0.004,0.62252 0.007,1.24469 0.01,1.86719 -0.003,1.13803 0.0163,2.25366 0.11328,3.3789 0.0853,0.22053 0.17296,0.44052 0.26562,0.66016 0.58018,0.61727 0.58034,0.61672 1.60157,0.80078 0.43918,-0.005 0.86671,-0.01 1.29296,-0.0156 0.49592,-0.002 0.99043,-0.003 1.48633,-0.004 1.15322,-0.015 2.30572,-0.0174 3.45899,-0.006 0.96126,0.01 1.92152,0.0174 2.88281,0.0234 1.95773,0.009 3.9173,0.0199 5.875,0.0332 1.9255,0.0131 3.84989,0.0254 5.77539,0.0371 2.98131,0.0178 5.96224,0.0334 8.94336,0.0703 3.12627,0.0402 6.25244,0.0651 9.37891,0.084 1.61985,0.009 3.23956,0.018 4.85937,0.0293 0.63791,0.005 1.27615,0.009 1.91406,0.0137 0.32621,10e-4 0.64239,0.005 0.95899,0.006 1.27867,0.008 2.55727,0.0174 3.83593,0.0254 0.63936,0.005 1.27863,0.007 1.91797,0.0117 1.6076,0.0112 3.21661,0.0232 4.82422,0.0332 2.9813,0.0179 5.96221,0.0333 8.94336,0.0703 3.12628,0.0402 6.25245,0.0631 9.37891,0.082 1.61985,0.009 3.23955,0.0199 4.85937,0.0312 0.63792,0.005 1.2761,0.009 1.91407,0.0137 0.80109,0.003 0.80068,0.003 0.95898,0.006 3.83597,0.025 7.67182,0.0513 11.50781,0.0762 0.6393,0.005 1.27865,0.007 1.91797,0.0117 1.60758,0.0112 3.21465,0.0213 4.82227,0.0312 2.9813,0.0179 5.96418,0.0334 8.94531,0.0703 3.12626,0.0402 6.25244,0.0651 9.37891,0.084 1.61998,0.009 3.23942,0.0199 4.85937,0.0312 1.92586,0.0131 3.85147,0.0253 5.77734,0.0371 0.65935,0.004 1.31918,0.008 1.97852,0.0117 0.33288,10e-4 0.65543,0.005 0.97852,0.006 1.7628,0.0107 3.52641,0.0226 5.28906,0.0488 0.48656,0.008 0.9724,0.0155 1.45898,0.0215 1.25223,-0.009 2.47256,-0.032 3.71485,0.13086 1.77567,0.26365 3.46428,0.38473 5.24609,0.10547 2.1919,-0.72199 2.19219,-0.72263 5.86719,-5.99219 0.49909,-0.71776 1.00689,-1.42944 1.52343,-2.13476 1.26867,-1.71976 2.52768,-3.44609 3.76368,-5.18946 1.60759,-2.27141 3.23114,-4.52974 4.86914,-6.77929 1.70194,-2.33627 3.39734,-4.67573 5.08594,-7.02149 0.94755,-1.31631 1.89272,-2.63559 2.83593,-3.95508 2.55533,-3.57555 5.11635,-7.14707 7.69336,-10.70703 0.16454,-0.2265 0.32181,-0.44683 0.48242,-0.66601 0.80058,-1.10547 1.60155,-2.21111 2.40235,-3.31641 6.77749,-9.35372 13.52408,-18.7294 20.24609,-28.12305 -0.55756,-0.4083 -0.55773,-0.40862 -1.24023,-0.45312 -0.72565,0.008 -0.72565,0.009 -0.86914,0.01 -0.33386,0.003 -0.65838,0.003 -0.98243,0.006 -0.72538,0.01 -1.45037,0.0155 -2.17578,0.0215 -0.38732,0.003 -0.76274,0.007 -1.13867,0.01 -1.79358,0.0172 -3.5872,0.0272 -5.38086,0.0312 -0.67299,0.002 -1.34655,0.005 -2.01953,0.006 -0.852,0.002 -0.85308,9.2e-4 -1.02148,0.002 -1.02259,0.003 -2.04383,0.008 -3.06641,0.0117 -3.33778,0.0143 -6.67592,0.0271 -10.01367,0.002 -4.31414,-0.0351 -8.62718,-0.0282 -12.94141,-0.01 -3.68015,0.016 -7.35896,0.0327 -11.03906,0.006 -3.62892,-0.0286 -7.25775,-0.0307 -10.88672,-0.0156 -1.70496,0.007 -3.41025,0.0106 -5.11523,0.0156 -2.04093,0.006 -4.08215,0.0105 -6.12305,0.0195 -3.33776,0.0143 -6.674,0.0272 -10.01172,0.002 -4.31419,-0.0352 -8.62717,-0.0282 -12.94141,-0.01 -3.68011,0.016 -7.36092,0.0327 -11.04101,0.006 -3.62891,-0.0286 -7.25775,-0.0327 -10.88672,-0.0176 -1.70497,0.007 -3.40828,0.0126 -5.11328,0.0176 -2.04093,0.006 -4.08214,0.0105 -6.12305,0.0195 -1.5589,0.007 -3.11897,0.0121 -4.67773,0.0137 -0.0261,-1.06786 -0.0453,-2.13647 -0.0566,-3.20508 -0.0218,-2.36844 -0.0587,-4.73605 -0.13282,-7.10351 -0.1779,-5.50215 -0.30482,-11.00301 -0.36132,-16.50781 -0.0251,-2.42097 -0.0846,-4.83998 -0.16407,-7.25977 -0.0705,-2.14678 -0.12974,-4.29158 -0.15234,-6.43945 -0.0218,-2.36845 -0.0587,-4.73603 -0.13281,-7.10352 -0.178,-5.50215 -0.30473,-11.00301 -0.36133,-16.50781 -0.0251,-2.42097 -0.0846,-4.83999 -0.16406,-7.25977 -0.0706,-2.14689 -0.12955,-4.29145 -0.15235,-6.43945 -0.0251,-2.71437 -0.0785,-5.42562 -0.16797,-8.13867 -0.0706,-2.14681 -0.12964,-4.29356 -0.15234,-6.44141 -0.0218,-2.36849 -0.0568,-4.73411 -0.13086,-7.10156 -0.17792,-5.50217 -0.30688,-11.00496 -0.36328,-16.50977 -0.0243,-2.44702 -0.0863,-4.89021 -0.16797,-7.33593 -0.0798,-2.32122 -0.1219,-4.63454 -0.0957,-6.95703 0.0279,-1.55447 -0.0729,-2.77607 -0.52344,-4.25782 z"
     clip-path="url(#clipPath4)"
     transform="translate(-262.09091,-170.5)" /><path
     id="path11"
     style="fill:#e87028;fill-opacity:1;stroke-width:0.275581"
     d="m 456.45257,186.53605 c -7.01001,5.38764 -14.01961,10.77729 -21.02763,16.16754 -0.84413,0.64937 -1.6887,1.29776 -2.53284,1.94715 -0.1735,0.13321 -0.34115,0.26304 -0.50937,0.39255 -2.73202,2.10126 -5.46544,4.20225 -8.19826,6.30252 -1.32551,1.01867 -2.65159,2.03726 -3.97686,3.05624 -1.48672,1.14309 -2.9734,2.28648 -4.45975,3.43009 -1.73301,1.33335 -3.46552,2.66675 -5.19965,3.99865 -1.1993,0.9213 -2.39837,1.84249 -3.59677,2.76496 -0.55502,0.4274 -1.11001,0.8548 -1.66521,1.282 -0.7788,0.59766 -1.55737,1.19525 -2.335,1.79449 -0.2371,0.18279 -0.4677,0.36006 -0.69786,0.53742 -0.22574,0.17266 -0.44428,0.34049 -0.66359,0.50781 -0.49677,0.38433 -0.49678,0.38376 -0.59504,0.45952 -0.17637,0.13552 -0.34764,0.26715 -0.51873,0.39878 l -0.002,0.002 c -0.42867,0.38026 -0.42894,0.38076 -0.40501,2.37552 0.003,0.24169 0.007,0.47571 0.009,0.71031 0.0272,2.10127 0.0672,4.2016 0.11372,6.30253 0.0436,1.97206 0.0782,3.9438 0.10122,5.9162 0.0346,3.06733 0.0865,6.13467 0.15422,9.20144 0.0301,1.34993 0.0595,2.70007 0.0872,4.05007 0.034,1.63116 0.0672,3.26166 0.10278,4.89277 0.0569,2.58571 0.1148,5.17127 0.14487,7.75744 0.0304,2.75698 0.0818,5.51342 0.14175,8.26991 0.0365,1.63724 0.0702,3.27422 0.10436,4.91148 0.0277,1.35265 0.0558,2.70529 0.0857,4.05786 0.0616,2.75748 0.11856,5.51502 0.1511,8.27303 0.0349,3.06806 0.0865,6.13549 0.15421,9.20299 0.0301,1.34993 0.0595,2.70006 0.0872,4.05006 0.034,1.63116 0.0672,3.26166 0.10277,4.89279 0.0569,2.58568 0.11481,5.17125 0.14487,7.75743 0.0304,2.75698 0.0818,5.51341 0.14175,8.26992 0.0297,1.3671 0.0592,2.7343 0.0872,4.10147 0.034,1.63014 0.0672,3.25958 0.10277,4.88967 0.0161,0.69446 0.0163,0.69457 0.0186,0.83183 0.0122,0.5509 0.0239,1.10181 0.0358,1.65273 0.0298,1.32881 0.06,2.65705 0.0701,3.9862 0.002,0.65632 0.002,0.65697 0.003,0.78664 0.003,0.4965 0.006,0.9927 0.008,1.48918 -0.002,0.90764 0.0129,1.79741 0.0904,2.69484 0.0681,0.17589 0.13793,0.35134 0.21184,0.52651 0.46271,0.49232 0.46285,0.49188 1.27733,0.63868 0.35027,-0.004 0.69124,-0.008 1.0312,-0.0125 0.39553,-0.002 0.78992,-0.002 1.18543,-0.003 0.91974,-0.012 1.83893,-0.0139 2.75872,-0.005 0.76665,0.008 1.53251,0.0139 2.29919,0.0186 1.56139,0.007 3.12424,0.0159 4.68561,0.0265 1.53568,0.0104 3.07048,0.0203 4.60616,0.0295 2.37774,0.0142 4.75519,0.0266 7.13279,0.0561 2.49336,0.0321 4.98663,0.0519 7.48016,0.067 1.29191,0.007 2.58372,0.0143 3.87559,0.0234 0.50877,0.004 1.0178,0.007 1.52657,0.011 0.26017,7.9e-4 0.51234,0.004 0.76484,0.005 1.01979,0.007 2.03955,0.0139 3.05935,0.0203 0.50991,0.004 1.01977,0.006 1.52968,0.009 1.28214,0.008 2.56541,0.0185 3.84756,0.0265 2.37773,0.0143 4.75516,0.0265 7.13278,0.0561 2.49337,0.0321 4.98665,0.0503 7.48016,0.0654 1.29192,0.007 2.5837,0.0159 3.87559,0.0248 0.50879,0.004 1.01776,0.007 1.52657,0.011 0.63892,0.002 0.63858,0.002 0.76484,0.005 3.05938,0.0199 6.11867,0.0409 9.17806,0.0608 0.50988,0.004 1.01979,0.006 1.52968,0.009 1.28213,0.008 2.56385,0.017 3.84601,0.0248 2.37774,0.0143 4.75673,0.0266 7.13434,0.0561 2.49335,0.0321 4.98664,0.0519 7.48016,0.067 1.29201,0.007 2.5836,0.0159 3.8756,0.0248 1.53596,0.0104 3.07173,0.0202 4.60772,0.0296 0.52586,0.003 1.05211,0.007 1.57797,0.009 0.26548,8e-4 0.52273,0.004 0.78042,0.005 1.40592,0.008 2.81249,0.018 4.21829,0.0389 0.38806,0.007 0.77553,0.0124 1.16361,0.0172 0.99872,-0.007 1.972,-0.0256 2.96278,0.10437 1.41619,0.21026 2.76294,0.30684 4.18403,0.0841 1.74815,-0.57583 1.74838,-0.57633 4.67938,-4.77908 0.39806,-0.57245 0.80305,-1.14005 1.21501,-1.70258 1.01183,-1.3716 2.01595,-2.74843 3.00173,-4.13886 1.28214,-1.81156 2.577,-3.6127 3.88339,-5.40683 1.35738,-1.86329 2.70955,-3.72913 4.05629,-5.59999 0.75572,-1.04983 1.50954,-2.10202 2.2618,-3.15438 2.03801,-2.85168 4.08055,-5.70016 6.13586,-8.5394 0.13121,-0.18065 0.25665,-0.35637 0.38474,-0.53118 0.63851,-0.88167 1.27732,-1.76347 1.916,-2.64501 5.40539,-7.46007 10.78614,-14.93764 16.14729,-22.42957 -0.44468,-0.32563 -0.44483,-0.32589 -0.98915,-0.36137 -0.57874,0.007 -0.57874,0.007 -0.69318,0.008 -0.26627,0.002 -0.5251,0.002 -0.78354,0.005 -0.57853,0.008 -1.15674,0.0124 -1.73529,0.0172 -0.30891,0.002 -0.60833,0.006 -0.90816,0.008 -1.43047,0.0138 -2.86097,0.0216 -4.2915,0.0248 -0.53674,0.002 -1.07395,0.004 -1.61068,0.005 -0.67951,0.002 -0.68038,7.3e-4 -0.81468,0.002 -0.81557,0.002 -1.63006,0.007 -2.44562,0.009 -2.66205,0.0114 -5.32439,0.0216 -7.98641,0.002 -3.44075,-0.0279 -6.88062,-0.0226 -10.32143,-0.008 -2.93511,0.0127 -5.86915,0.0261 -8.80423,0.005 -2.89424,-0.0229 -5.78841,-0.0245 -8.6827,-0.0124 -1.3598,0.006 -2.71986,0.008 -4.07965,0.0124 -1.62776,0.005 -3.25572,0.008 -4.88346,0.0155 -2.66203,0.0114 -5.32285,0.0216 -7.98485,0.002 -3.44079,-0.0281 -6.88061,-0.0226 -10.32144,-0.008 -2.93507,0.0127 -5.8707,0.0261 -8.80575,0.005 -2.89426,-0.0228 -5.78844,-0.0261 -8.68272,-0.0141 -1.35981,0.006 -2.71828,0.0103 -4.07811,0.0141 -1.62774,0.005 -3.25572,0.008 -4.88344,0.0156 -1.24331,0.006 -2.48755,0.009 -3.73073,0.0109 -0.0208,-0.85167 -0.0361,-1.70395 -0.0451,-2.55622 -0.0174,-1.88895 -0.0468,-3.77724 -0.10593,-5.66541 -0.14188,-4.38824 -0.24311,-8.77546 -0.28817,-13.16582 -0.02,-1.93084 -0.0675,-3.86013 -0.13086,-5.79003 -0.0562,-1.71217 -0.1035,-3.42277 -0.12149,-5.13579 -0.0174,-1.88896 -0.0468,-3.77723 -0.10593,-5.66542 -0.14196,-4.38824 -0.24304,-8.77547 -0.28817,-13.16582 -0.02,-1.93085 -0.0675,-3.86014 -0.13085,-5.79004 -0.0563,-1.71226 -0.10329,-3.42265 -0.12151,-5.13578 -0.02,-2.16485 -0.0626,-4.32722 -0.13397,-6.49101 -0.0563,-1.7122 -0.1034,-3.42434 -0.12149,-5.13736 -0.0174,-1.88899 -0.0452,-3.77569 -0.10436,-5.66385 -0.14191,-4.38826 -0.24477,-8.77702 -0.28974,-13.16739 -0.0195,-1.95162 -0.0688,-3.90019 -0.13396,-5.85077 -0.0637,-1.85129 -0.0973,-3.69628 -0.0764,-5.54859 0.0223,-1.23977 -0.0582,-2.21406 -0.41747,-3.39583 z"
     clip-path="url(#clipPath3)"
     transform="translate(-262.09091,-170.5)" /></svg>
