<svg xmlns="http://www.w3.org/2000/svg" width="1400" height="2800"><style>path{fill:none;stroke:#ffffff;stroke-opacity:0.06;stroke-width:1.2}</style><path d="M -20,-42.6 Q-10,-37.4 0,-32.5 Q10,-29.3 20,-28.7 Q30,-30.7 40,-34.0 Q50,-36.9 60,-38.3 Q70,-37.9 80,-36.7 Q90,-35.7 100,-35.6 Q110,-36.0 120,-35.8 Q130,-34.2 140,-31.0 Q150,-27.2 160,-24.4 Q170,-23.7 180,-25.2 Q190,-27.8 200,-30.1 Q210,-30.9 220,-30.2 Q230,-28.6 240,-27.5 Q250,-27.5 260,-28.3 Q270,-29.0 280,-28.5 Q290,-26.7 300,-24.6 Q310,-23.7 320,-25.2 Q330,-29.2 340,-34.9 Q350,-40.6 360,-45.1 Q370,-48.0 380,-49.9 Q390,-51.9 400,-54.5 Q410,-57.2 420,-59.1 Q430,-59.0 440,-56.6 Q450,-52.8 460,-49.1 Q470,-47.0 480,-46.9 Q490,-48.1 500,-49.3 Q510,-49.2 520,-47.7 Q530,-45.5 540,-43.6 Q550,-42.8 560,-42.8 Q570,-42.7 580,-41.2 Q590,-38.1 600,-34.2 Q610,-31.1 620,-30.2 Q630,-32.0 640,-36.0 Q650,-40.8 660,-45.2 Q670,-48.6 680,-51.7 Q690,-55.3 700,-60.1 Q710,-65.6 720,-70.6 Q730,-73.8 740,-74.6 Q750,-73.6 760,-72.4 Q770,-72.3 780,-74.2 Q790,-77.5 800,-81.1 Q810,-83.9 820,-85.4 Q830,-86.3 840,-87.6 Q850,-90.1 860,-93.5 Q870,-96.7 880,-98.3 Q890,-97.8 900,-95.6 Q910,-93.2 920,-92.2 Q930,-93.3 940,-96.2 Q950,-99.9 960,-103.1 Q970,-105.3 980,-107.1 Q990,-109.4 1000,-112.8 Q1010,-117.0 1020,-120.7 Q1030,-122.5 1040,-121.5 Q1050,-117.8 1060,-112.9 Q1070,-108.3 1080,-105.0 Q1090,-102.7 1100,-100.5 Q1110,-97.4 1120,-93.0 Q1130,-87.9 1140,-83.3 Q1150,-80.1 1160,-78.1 Q1170,-76.3 1180,-73.2 Q1190,-68.0 1200,-60.9 Q1210,-53.1 1220,-46.3 Q1230,-41.4 1240,-38.6 Q1250,-36.8 1260,-35.0 Q1270,-32.8 1280,-30.7 Q1290,-29.8 1300,-31.0 Q1310,-33.9 1320,-37.5 Q1330,-40.2 1340,-40.6 Q1350,-38.8 1360,-35.7 Q1370,-32.8 1380,-31.2 Q1390,-30.7 1400,-30.6"/><path d="M -20,34.6 Q-10,31.2 0,26.3 Q10,21.7 20,18.7 Q30,17.8 40,18.2 Q50,18.6 60,18.2 Q70,17.0 80,15.8 Q90,15.6 100,16.8 Q110,18.8 120,20.3 Q130,20.0 140,17.7 Q150,14.1 160,10.9 Q170,9.3 180,9.8 Q190,11.7 200,13.6 Q210,14.6 220,14.6 Q230,14.2 240,14.5 Q250,15.9 260,17.8 Q270,18.9 280,17.7 Q290,14.1 300,8.6 Q310,3.0 320,-1.3 Q330,-3.7 340,-4.6 Q350,-5.1 360,-6.1 Q370,-7.6 380,-8.8 Q390,-8.5 400,-6.3 Q410,-2.8 420,0.7 Q430,2.8 440,2.6 Q450,0.9 460,-1.1 Q470,-1.9 480,-1.1 Q490,1.0 500,3.1 Q510,4.3 520,4.4 Q530,4.2 540,4.8 Q550,6.6 560,9.2 Q570,11.1 580,11.0 Q590,8.0 600,2.5 Q610,-4.1 620,-10.2 Q630,-15.0 640,-18.9 Q650,-22.8 660,-27.3 Q670,-32.6 680,-37.8 Q690,-41.4 700,-42.9 Q710,-42.5 720,-41.5 Q730,-41.5 740,-43.4 Q750,-47.0 760,-51.0 Q770,-54.2 780,-55.8 Q790,-56.0 800,-56.0 Q810,-56.6 820,-57.9 Q830,-59.3 840,-59.4 Q850,-57.4 860,-53.8 Q870,-49.7 880,-46.7 Q890,-46.1 900,-47.6 Q910,-50.2 920,-52.4 Q930,-53.6 940,-53.8 Q950,-53.9 960,-54.7 Q970,-56.2 980,-57.7 Q990,-57.5 1000,-54.9 Q1010,-49.7 1020,-43.3 Q1030,-37.2 1040,-32.5 Q1050,-29.5 1060,-27.2 Q1070,-24.4 1080,-20.4 Q1090,-15.4 1100,-10.4 Q1110,-6.5 1120,-3.9 Q1130,-1.7 1140,1.2 Q1150,6.0 1160,12.6 Q1170,20.0 1180,26.3 Q1190,30.4 1200,32.0 Q1210,32.0 1220,31.4 Q1230,31.3 1240,31.3 Q1250,30.6 1260,28.5 Q1270,24.6 1280,19.9 Q1290,16.1 1300,14.3 Q1310,14.8 1320,16.9 Q1330,19.0 1340,19.8 Q1350,19.1 1360,17.6 Q1370,16.3 1380,16.1 Q1390,16.7 1400,17.2"/><path d="M -20,65.8 Q-10,63.9 0,63.7 Q10,64.0 20,63.5 Q30,61.9 40,59.8 Q50,58.4 60,58.2 Q70,59.0 80,59.8 Q90,59.3 100,57.0 Q110,53.6 120,50.4 Q130,49.0 140,50.0 Q150,52.7 160,56.0 Q170,58.4 180,59.5 Q190,59.8 200,60.2 Q210,61.3 220,63.0 Q230,64.2 240,63.5 Q250,60.4 260,55.3 Q270,49.9 280,45.7 Q290,43.7 300,43.4 Q310,44.0 320,44.1 Q330,43.4 340,42.4 Q350,42.1 360,43.3 Q370,45.8 380,48.4 Q390,49.7 400,48.9 Q410,46.3 420,43.1 Q430,41.1 440,40.9 Q450,42.3 460,44.3 Q470,45.6 480,45.6 Q490,44.8 500,44.2 Q510,44.5 520,45.6 Q530,46.2 540,45.0 Q550,41.1 560,34.7 Q570,27.0 580,19.8 Q590,14.2 600,10.2 Q610,6.9 620,3.3 Q630,-1.0 640,-5.3 Q650,-8.6 660,-10.0 Q670,-9.4 680,-8.0 Q690,-7.3 700,-8.3 Q710,-11.1 720,-14.4 Q730,-16.9 740,-17.6 Q750,-16.3 760,-14.0 Q770,-11.9 780,-10.5 Q790,-9.4 800,-7.4 Q810,-3.9 820,1.4 Q830,7.1 840,11.8 Q850,14.2 860,14.2 Q870,12.7 880,11.2 Q890,10.9 900,12.0 Q910,13.6 920,14.9 Q930,15.4 940,15.7 Q950,16.9 960,20.2 Q970,25.6 980,32.3 Q990,38.7 1000,43.4 Q1010,46.0 1020,47.4 Q1030,48.9 1040,51.6 Q1050,55.5 1060,59.8 Q1070,63.5 1080,66.0 Q1090,67.8 1100,69.8 Q1110,73.4 1120,78.5 Q1130,84.4 1140,89.5 Q1150,92.2 1160,92.1 Q1170,89.9 1180,86.9 Q1190,84.2 1200,82.2 Q1210,80.1 1220,77.1 Q1230,72.7 1240,67.5 Q1250,62.9 1260,60.1 Q1270,59.8 1280,61.2 Q1290,62.8 1300,63.3 Q1310,62.0 1320,59.5 Q1330,57.0 1340,55.5 Q1350,55.3 1360,55.6 Q1370,55.4 1380,54.0 Q1390,51.9 1400,50.2"/><path d="M -20,104.8 Q-10,103.5 0,101.3 Q10,99.2 20,98.2 Q30,98.4 40,99.1 Q50,99.1 60,97.7 Q70,95.1 80,92.7 Q90,92.0 100,93.7 Q110,97.5 120,102.0 Q130,105.8 140,108.0 Q150,108.8 160,109.0 Q170,109.7 180,110.8 Q190,111.6 200,111.0 Q210,108.1 220,103.3 Q230,97.9 240,93.5 Q250,91.3 260,91.1 Q270,92.0 280,92.5 Q290,91.9 300,90.5 Q310,89.0 320,88.6 Q330,89.3 340,90.4 Q350,90.6 360,88.8 Q370,85.3 380,81.1 Q390,77.9 400,76.8 Q410,77.6 420,79.5 Q430,80.9 440,81.0 Q450,79.9 460,78.5 Q470,77.6 480,77.4 Q490,77.2 500,75.6 Q510,71.5 520,65.1 Q530,57.5 540,50.3 Q550,45.0 560,41.8 Q570,39.9 580,38.2 Q590,35.9 600,33.3 Q610,31.2 620,30.7 Q630,32.0 640,34.4 Q650,36.4 660,37.0 Q670,35.9 680,34.0 Q690,32.8 700,33.7 Q710,36.9 720,41.6 Q730,46.5 740,50.8 Q750,54.4 760,58.1 Q770,62.9 780,69.1 Q790,75.8 800,81.6 Q810,85.0 820,85.9 Q830,84.8 840,83.6 Q850,83.4 860,84.8 Q870,87.2 880,89.6 Q890,91.1 900,92.0 Q910,93.3 920,95.9 Q930,100.4 940,106.0 Q950,111.3 960,114.9 Q970,116.3 980,116.0 Q990,115.5 1000,116.1 Q1010,118.3 1020,121.4 Q1030,124.4 1040,126.3 Q1050,127.3 1060,128.3 Q1070,130.2 1080,133.5 Q1090,137.7 1100,141.2 Q1110,142.5 1120,140.9 Q1130,136.9 1140,131.9 Q1150,127.4 1160,123.8 Q1170,120.9 1180,117.8 Q1190,113.7 1200,108.8 Q1210,104.2 1220,101.2 Q1230,100.6 1240,101.7 Q1250,103.4 1260,104.1 Q1270,102.9 1280,100.2 Q1290,97.3 1300,95.3 Q1310,94.9 1320,95.6 Q1330,96.4 1340,96.4 Q1350,95.8 1360,95.2 Q1370,96.1 1380,99.1 Q1390,103.8 1400,108.8"/><path d="M -20,140.8 Q-10,140.7 0,141.5 Q10,142.2 20,141.9 Q30,140.5 40,139.0 Q50,139.0 60,141.3 Q70,145.7 80,151.1 Q90,155.7 100,158.4 Q110,159.2 120,158.8 Q130,158.3 140,158.2 Q150,158.1 160,157.0 Q170,154.0 180,149.1 Q190,143.4 200,138.4 Q210,135.5 220,134.9 Q230,135.4 240,135.8 Q250,134.9 260,132.6 Q270,129.7 280,127.4 Q290,126.2 300,125.7 Q310,124.8 320,122.4 Q330,118.5 340,113.9 Q350,110.1 360,108.6 Q370,109.3 380,111.5 Q390,113.6 400,114.5 Q410,113.8 420,112.3 Q430,110.9 440,110.3 Q450,109.9 460,108.7 Q470,105.6 480,100.4 Q490,93.9 500,88.0 Q510,84.0 520,82.4 Q530,82.7 540,83.5 Q550,83.9 560,83.4 Q570,83.0 580,83.7 Q590,85.9 600,89.4 Q610,92.9 620,95.2 Q630,95.9 640,95.7 Q650,96.0 660,98.3 Q670,103.1 680,109.7 Q690,116.8 700,123.2 Q710,128.5 720,133.2 Q730,138.3 740,144.3 Q750,150.7 760,156.4 Q770,159.8 780,160.5 Q790,159.2 800,157.2 Q810,156.2 820,156.9 Q830,159.1 840,161.4 Q850,163.0 860,163.6 Q870,163.9 880,164.9 Q890,167.3 900,170.9 Q910,174.3 920,176.2 Q930,175.8 940,173.7 Q950,171.1 960,169.6 Q970,169.9 980,171.8 Q990,174.1 1000,175.7 Q1010,176.3 1020,176.3 Q1030,176.9 1040,178.7 Q1050,181.4 1060,183.7 Q1070,184.0 1080,181.6 Q1090,176.7 1100,170.7 Q1110,165.1 1120,161.0 Q1130,158.1 1140,155.7 Q1150,152.7 1160,149.0 Q1170,145.2 1180,142.6 Q1190,142.1 1200,143.4 Q1210,145.4 1220,146.6 Q1230,145.9 1240,143.5 Q1250,140.5 1260,138.3 Q1270,138.0 1280,139.3 Q1290,141.2 1300,142.7 Q1310,143.5 1320,144.0 Q1330,145.4 1340,148.6 Q1350,153.2 1360,158.2 Q1370,161.8 1380,162.9 Q1390,161.3 1400,158.0"/><path d="M -20,188.8 Q-10,188.3 0,187.6 Q10,187.9 20,190.2 Q30,194.5 40,199.9 Q50,204.5 60,207.1 Q70,207.2 80,205.5 Q90,203.4 100,201.6 Q110,200.1 120,198.2 Q130,194.8 140,189.6 Q150,183.6 160,178.1 Q170,174.4 180,173.0 Q190,173.1 200,173.1 Q210,171.9 220,168.9 Q230,164.9 240,161.1 Q250,158.4 260,156.8 Q270,155.4 280,153.2 Q290,149.8 300,145.8 Q310,142.6 320,141.5 Q330,143.0 340,146.2 Q350,149.8 360,152.1 Q370,152.6 380,151.9 Q390,151.0 400,150.6 Q410,150.9 420,150.8 Q430,149.5 440,146.3 Q450,142.0 460,138.0 Q470,135.8 480,136.3 Q490,138.9 500,142.3 Q510,145.1 520,146.9 Q530,148.0 540,149.5 Q550,152.3 560,156.4 Q570,160.8 580,164.3 Q590,166.4 600,167.3 Q610,168.6 620,171.6 Q630,177.0 640,184.6 Q650,192.7 660,200.1 Q670,205.9 680,210.4 Q690,214.6 700,219.1 Q710,224.0 720,228.3 Q730,230.7 740,230.5 Q750,228.0 760,224.7 Q770,222.2 780,221.6 Q790,222.6 800,224.2 Q810,225.2 820,224.9 Q830,223.7 840,222.7 Q850,222.8 860,223.9 Q870,225.2 880,225.3 Q890,223.5 900,219.9 Q910,215.8 920,212.8 Q930,211.9 940,213.1 Q950,215.3 960,217.1 Q970,217.8 980,217.7 Q990,217.7 1000,218.5 Q1010,220.2 1020,221.8 Q1030,221.9 1040,219.5 Q1050,214.7 1060,208.6 Q1070,203.0 1080,199.0 Q1090,196.8 1100,195.6 Q1110,194.3 1120,192.1 Q1130,189.6 1140,187.7 Q1150,187.3 1160,188.7 Q1170,190.8 1180,192.4 Q1190,192.1 1200,190.0 Q1210,187.0 1220,184.6 Q1230,184.2 1240,185.7 Q1250,188.4 1260,190.9 Q1270,192.7 1280,193.8 Q1290,195.2 1300,197.8 Q1310,201.6 1320,205.7 Q1330,208.6 1340,209.0 Q1350,206.4 1360,201.9 Q1370,197.0 1380,192.9 Q1390,190.0 1400,187.6"/><path d="M -20,236.7 Q-10,240.3 0,244.8 Q10,248.8 20,250.6 Q30,249.7 40,246.6 Q50,242.7 60,239.1 Q70,236.3 80,233.5 Q90,229.9 100,224.9 Q110,219.0 120,213.3 Q130,209.2 140,207.4 Q150,207.2 160,207.3 Q170,206.2 180,203.2 Q190,198.8 200,194.4 Q210,191.1 220,189.3 Q230,188.4 240,187.3 Q250,185.5 260,183.3 Q270,181.6 280,182.0 Q290,184.9 300,189.8 Q310,195.3 320,199.6 Q330,201.9 340,202.6 Q350,202.5 360,202.9 Q370,204.2 380,205.6 Q390,206.2 400,205.4 Q410,203.4 420,201.5 Q430,201.2 440,203.3 Q450,207.6 460,212.8 Q470,217.4 480,220.6 Q490,222.4 500,224.0 Q510,226.5 520,230.1 Q530,234.4 540,238.2 Q550,240.7 560,242.0 Q570,243.4 580,246.1 Q590,251.2 600,258.3 Q610,266.3 620,273.3 Q630,278.5 640,281.8 Q650,284.0 660,286.2 Q670,288.7 680,290.8 Q690,291.5 700,289.9 Q710,286.1 720,281.4 Q730,277.3 740,275.1 Q750,274.8 760,275.5 Q770,275.7 780,274.6 Q790,272.2 800,269.4 Q810,267.3 820,266.3 Q830,265.9 840,264.9 Q850,262.3 860,258.2 Q870,253.6 880,250.1 Q890,248.9 900,250.2 Q910,252.9 920,255.6 Q930,257.3 940,257.7 Q950,257.7 960,258.1 Q970,259.3 980,260.7 Q990,261.1 1000,259.2 Q1010,255.1 1020,249.7 Q1030,244.5 1040,241.1 Q1050,239.8 1060,239.9 Q1070,240.1 1080,239.5 Q1090,238.0 1100,236.5 Q1110,235.9 1120,236.8 Q1130,238.6 1140,239.9 Q1150,239.7 1160,237.5 Q1170,234.2 1180,231.4 Q1190,230.4 1200,231.7 Q1210,234.5 1220,237.5 Q1230,239.7 1240,240.9 Q1250,241.7 1260,243.1 Q1270,245.4 1280,248.1 Q1290,249.8 1300,249.1 Q1310,245.6 1320,239.9 Q1330,233.7 1340,228.3 Q1350,224.6 1360,222.0 Q1370,219.4 1380,216.0 Q1390,211.7 1400,207.4"/><path d="M -20,288.2 Q-10,286.4 0,282.3 Q10,277.0 20,272.2 Q30,268.4 40,265.4 Q50,262.3 60,258.2 Q70,253.2 80,248.2 Q90,244.5 100,242.9 Q110,243.1 120,243.8 Q130,243.4 140,241.3 Q150,237.5 160,233.5 Q170,230.5 180,229.4 Q190,229.8 200,230.9 Q210,231.6 220,231.8 Q230,232.5 240,234.8 Q250,239.5 260,246.1 Q270,253.5 280,259.7 Q290,263.8 300,265.8 Q310,266.7 320,267.7 Q330,269.6 340,272.2 Q350,274.4 360,275.5 Q370,275.4 380,275.0 Q390,275.7 400,278.6 Q410,283.5 420,289.3 Q430,294.4 440,297.7 Q450,299.1 460,299.7 Q470,300.7 480,302.9 Q490,306.0 500,309.0 Q510,311.1 520,312.0 Q530,312.7 540,314.4 Q550,318.1 560,324.0 Q570,330.7 580,336.6 Q590,340.4 600,341.9 Q610,341.8 620,341.3 Q630,341.1 640,341.0 Q650,340.0 660,337.2 Q670,332.5 680,326.8 Q690,321.7 700,318.3 Q710,317.1 720,317.2 Q730,317.1 740,315.7 Q750,312.6 760,308.7 Q770,305.2 780,302.9 Q790,301.5 800,300.1 Q810,297.8 820,294.2 Q830,290.2 840,287.2 Q850,286.4 860,288.4 Q870,292.2 880,296.2 Q890,299.1 900,300.5 Q910,300.8 920,301.0 Q930,302.0 940,303.3 Q950,303.9 960,302.8 Q970,299.5 980,294.9 Q990,290.3 1000,287.4 Q1010,286.7 1020,287.6 Q1030,288.8 1040,289.2 Q1050,288.2 1060,286.4 Q1070,285.0 1080,284.7 Q1090,285.3 1100,285.8 Q1110,285.0 1120,282.5 Q1130,278.7 1140,275.1 Q1150,273.3 1160,274.0 Q1170,276.5 1180,279.5 Q1190,281.8 1200,282.8 Q1210,282.8 1220,282.8 Q1230,283.5 1240,284.6 Q1250,285.1 1260,283.7 Q1270,279.6 1280,273.4 Q1290,266.6 1300,260.8 Q1310,256.9 1320,254.6 Q1330,253.0 1340,250.8 Q1350,247.6 1360,244.0 Q1370,241.0 1380,239.6 Q1390,239.5 1400,239.7"/><path d="M -20,305.4 Q-10,301.7 0,299.4 Q10,297.6 20,295.4 Q30,292.2 40,288.8 Q50,286.3 60,285.6 Q70,286.7 80,288.5 Q90,289.5 100,288.8 Q110,286.4 120,283.5 Q130,281.6 140,281.7 Q150,283.9 160,287.3 Q170,290.7 180,293.7 Q190,296.7 200,300.8 Q210,306.8 220,314.7 Q230,323.2 240,330.7 Q250,335.9 260,338.6 Q270,339.7 280,340.7 Q290,342.5 300,345.3 Q310,348.3 320,350.4 Q330,351.3 340,351.4 Q350,352.1 360,354.5 Q370,358.6 380,363.5 Q390,367.8 400,370.1 Q410,370.2 420,368.9 Q430,367.6 440,367.5 Q450,368.6 460,370.3 Q470,371.4 480,371.6 Q490,371.3 500,371.6 Q510,373.7 520,377.8 Q530,382.9 540,387.4 Q550,389.9 560,389.7 Q570,387.6 580,384.8 Q590,382.3 600,380.5 Q610,378.4 620,375.2 Q630,370.5 640,364.8 Q650,359.4 660,355.8 Q670,354.3 680,354.4 Q690,354.5 700,353.4 Q710,350.5 720,346.3 Q730,342.1 740,339.1 Q750,337.5 760,336.5 Q770,335.1 780,332.8 Q790,330.1 800,328.1 Q810,328.3 820,331.1 Q830,335.9 840,341.1 Q850,345.2 860,347.3 Q870,347.9 880,347.8 Q890,348.1 900,349.0 Q910,349.6 920,348.9 Q930,346.3 940,342.2 Q950,338.0 960,335.1 Q970,334.3 980,335.4 Q990,336.9 1000,337.4 Q1010,336.2 1020,333.7 Q1030,330.9 1040,328.8 Q1050,327.8 1060,327.0 Q1070,325.5 1080,322.4 Q1090,318.2 1100,314.0 Q1110,311.5 1120,311.5 Q1130,313.7 1140,316.8 Q1150,319.3 1160,320.2 Q1170,319.7 1180,318.8 Q1190,318.2 1200,318.3 Q1210,318.2 1220,316.6 Q1230,312.9 1240,307.3 Q1250,301.0 1260,295.8 Q1270,292.6 1280,291.6 Q1290,291.6 1300,291.4 Q1310,290.1 1320,287.9 Q1330,285.9 1340,285.0 Q1350,285.6 1360,286.8 Q1370,287.6 1380,286.9 Q1390,284.9 1400,282.8"/><path d="M -20,342.1 Q-10,341.5 0,340.3 Q10,339.5 20,340.0 Q30,342.1 40,345.1 Q50,347.7 60,348.6 Q70,347.7 80,346.1 Q90,345.2 100,346.5 Q110,350.2 120,355.5 Q130,361.2 140,366.3 Q150,371.1 160,376.2 Q170,382.6 180,390.5 Q190,399.0 200,406.5 Q210,411.7 220,414.2 Q230,414.7 240,414.6 Q250,415.4 260,417.4 Q270,420.0 280,422.1 Q290,423.0 300,422.8 Q310,422.5 320,423.3 Q330,425.5 340,428.6 Q350,431.1 360,431.7 Q370,429.8 380,426.3 Q390,422.5 400,419.9 Q410,419.0 420,419.3 Q430,419.6 440,419.2 Q450,418.2 460,417.5 Q470,418.2 480,420.8 Q490,424.5 500,427.9 Q510,429.4 520,428.3 Q530,425.0 540,420.8 Q550,417.0 560,414.3 Q570,412.1 580,409.5 Q590,405.7 600,400.9 Q610,396.3 620,393.1 Q630,391.9 640,392.4 Q650,393.2 660,392.8 Q670,390.5 680,386.6 Q690,382.3 700,379.1 Q710,377.5 720,377.1 Q730,376.9 740,376.2 Q750,374.9 760,374.1 Q770,375.1 780,378.4 Q790,383.7 800,389.5 Q810,394.1 820,396.5 Q830,396.8 840,395.9 Q850,395.2 860,395.0 Q870,395.1 880,394.4 Q890,392.0 900,388.2 Q910,383.9 920,380.6 Q930,379.3 940,379.8 Q950,380.9 960,381.1 Q970,379.3 980,375.8 Q990,371.5 1000,367.6 Q1010,364.9 1020,362.9 Q1030,360.8 1040,357.7 Q1050,353.5 1060,349.4 Q1070,346.8 1080,346.7 Q1090,349.0 1100,352.5 Q1110,355.6 1120,357.1 Q1130,356.9 1140,355.8 Q1150,354.8 1160,354.6 Q1170,354.6 1180,354.0 Q1190,351.7 1200,347.7 Q1210,343.1 1220,339.3 Q1230,337.7 1240,338.5 Q1250,340.7 1260,342.8 Q1270,343.8 1280,343.5 Q1290,342.7 1300,342.6 Q1310,343.9 1320,346.2 Q1330,348.4 1340,349.5 Q1350,349.4 1360,349.1 Q1370,349.9 1380,353.2 Q1390,359.3 1400,367.2"/><path d="M -20,406.6 Q-10,409.4 0,413.1 Q10,416.5 20,418.6 Q30,418.8 40,418.1 Q50,417.9 60,419.6 Q70,424.0 80,430.2 Q90,437.0 100,443.3 Q110,448.6 120,453.6 Q130,459.2 140,465.8 Q150,472.9 160,479.2 Q170,483.3 180,484.6 Q190,483.6 200,481.9 Q210,480.9 220,481.4 Q230,482.8 240,484.2 Q250,484.4 260,483.3 Q270,481.5 280,480.2 Q290,480.1 300,480.9 Q310,481.3 320,480.0 Q330,476.4 340,471.1 Q350,465.4 360,460.9 Q370,458.5 380,457.8 Q390,457.9 400,457.6 Q410,456.7 420,455.7 Q430,455.8 440,457.5 Q450,460.4 460,463.3 Q470,464.6 480,463.3 Q490,459.7 500,455.2 Q510,451.1 520,448.4 Q530,446.8 540,445.5 Q550,443.4 560,440.3 Q570,436.9 580,434.5 Q590,433.9 600,434.8 Q610,436.2 620,436.5 Q630,434.8 640,431.2 Q650,426.9 660,423.5 Q670,421.9 680,421.9 Q690,422.7 700,423.2 Q710,423.1 720,423.1 Q730,424.3 740,427.5 Q750,432.4 760,438.0 Q770,442.4 780,444.3 Q790,443.8 800,441.8 Q810,439.5 820,438.0 Q830,437.1 840,436.1 Q850,433.8 860,430.1 Q870,425.8 880,422.0 Q890,420.0 900,419.7 Q910,420.2 920,419.9 Q930,417.7 940,413.4 Q950,408.0 960,402.8 Q970,399.0 980,396.5 Q990,394.5 1000,392.1 Q1010,389.0 1020,385.9 Q1030,384.0 1040,384.6 Q1050,387.6 1060,392.2 Q1070,396.6 1080,399.4 Q1090,400.2 1100,399.7 Q1110,399.1 1120,399.3 Q1130,400.3 1140,401.2 Q1150,401.0 1160,399.4 Q1170,397.1 1180,395.4 Q1190,395.7 1200,398.3 Q1210,402.5 1220,406.8 Q1230,409.8 1240,411.0 Q1250,411.2 1260,411.6 Q1270,413.1 1280,415.8 Q1290,418.8 1300,421.2 Q1310,422.5 1320,423.2 Q1330,424.9 1340,428.7 Q1350,435.1 1360,443.5 Q1370,452.1 1380,459.5 Q1390,465.0 1400,469.1"/><path d="M -20,493.0 Q-10,493.5 0,492.8 Q10,492.3 20,493.7 Q30,497.5 40,503.5 Q50,510.3 60,516.5 Q70,521.3 80,525.0 Q90,528.7 100,532.9 Q110,537.6 120,541.8 Q130,544.1 140,543.7 Q150,541.1 160,537.5 Q170,534.5 180,533.2 Q190,533.4 200,533.8 Q210,533.3 220,531.3 Q230,528.2 240,525.1 Q250,522.9 260,521.5 Q270,520.2 280,517.6 Q290,513.1 300,506.8 Q310,500.1 320,494.8 Q330,491.8 340,491.2 Q350,491.8 360,492.5 Q370,492.5 380,492.1 Q390,492.2 400,493.6 Q410,496.3 420,499.2 Q430,500.8 440,500.1 Q450,497.1 460,493.0 Q470,489.2 480,487.0 Q490,486.5 500,486.6 Q510,486.3 520,485.0 Q530,482.9 540,481.2 Q550,480.8 560,481.7 Q570,483.1 580,483.7 Q590,482.2 600,478.6 Q610,474.1 620,470.1 Q630,468.1 640,468.0 Q650,469.2 660,470.4 Q670,471.0 680,471.3 Q690,472.2 700,474.6 Q710,478.5 720,483.1 Q730,486.6 740,487.8 Q750,486.3 760,483.0 Q770,479.3 780,476.4 Q790,474.7 800,473.4 Q810,471.4 820,468.2 Q830,464.2 840,460.3 Q850,457.8 860,457.0 Q870,457.2 880,456.9 Q890,454.7 900,450.4 Q910,444.7 920,439.3 Q930,435.2 940,433.0 Q950,432.1 960,431.4 Q970,430.3 980,429.2 Q990,429.0 1000,430.9 Q1010,435.3 1020,441.2 Q1030,447.3 1040,451.8 Q1050,454.1 1060,454.7 Q1070,455.0 1080,456.0 Q1090,458.1 1100,460.7 Q1110,462.8 1120,463.7 Q1130,463.6 1140,463.9 Q1150,465.6 1160,469.5 Q1170,474.9 1180,480.4 Q1190,484.4 1200,486.4 Q1210,486.7 1220,486.7 Q1230,487.5 1240,489.6 Q1250,492.5 1260,495.1 Q1270,496.8 1280,497.9 Q1290,499.4 1300,502.6 Q1310,508.2 1320,515.6 Q1330,523.4 1340,529.9 Q1350,534.2 1360,536.4 Q1370,537.5 1380,538.8 Q1390,540.4 1400,541.9"/><path d="M -20,561.0 Q-10,563.5 0,568.3 Q10,574.0 20,579.2 Q30,582.7 40,584.7 Q50,585.9 60,587.4 Q70,589.3 80,591.1 Q90,591.5 100,589.7 Q110,585.7 120,580.7 Q130,576.4 140,573.8 Q150,572.9 160,572.9 Q170,572.2 180,569.9 Q190,566.1 200,561.8 Q210,558.1 220,555.4 Q230,553.0 240,550.1 Q250,545.5 260,539.5 Q270,533.0 280,527.9 Q290,525.3 300,525.4 Q310,527.2 320,529.5 Q330,531.0 340,531.6 Q350,532.3 360,533.8 Q370,536.4 380,539.4 Q390,541.6 400,541.7 Q410,539.5 420,536.0 Q430,532.8 440,531.1 Q450,531.4 460,532.7 Q470,533.9 480,533.8 Q490,532.6 500,531.0 Q510,530.1 520,530.3 Q530,531.0 540,531.1 Q550,529.2 560,525.3 Q570,520.2 580,515.5 Q590,512.6 600,512.1 Q610,513.2 620,514.7 Q630,515.7 640,516.0 Q650,516.3 660,517.5 Q670,520.1 680,523.4 Q690,526.0 700,526.4 Q710,524.3 720,520.2 Q730,515.6 740,512.0 Q750,510.0 760,509.0 Q770,507.9 780,505.9 Q790,502.9 800,499.7 Q810,497.4 820,496.7 Q830,497.1 840,497.3 Q850,495.9 860,492.5 Q870,487.6 880,482.7 Q890,479.4 900,478.4 Q910,479.2 920,480.9 Q930,482.5 940,483.9 Q950,485.8 960,489.3 Q970,495.0 980,502.3 Q990,509.8 1000,515.8 Q1010,519.5 1020,521.2 Q1030,522.2 1040,523.8 Q1050,526.7 1060,530.5 Q1070,534.2 1080,536.9 Q1090,538.6 1100,539.9 Q1110,542.2 1120,546.2 Q1130,551.5 1140,556.8 Q1150,560.7 1160,562.2 Q1170,561.6 1180,560.2 Q1190,559.3 1200,559.9 Q1210,561.6 1220,563.5 Q1230,564.8 1240,565.3 Q1250,565.9 1260,567.7 Q1270,571.6 1280,577.3 Q1290,583.4 1300,588.2 Q1310,590.7 1320,590.7 Q1330,589.3 1340,587.8 Q1350,587.0 1360,586.5 Q1370,585.5 1380,583.1 Q1390,579.2 1400,574.6"/><path d="M -20,628.8 Q-10,631.0 0,631.2 Q10,630.2 20,629.2 Q30,628.7 40,628.6 Q50,627.7 60,625.2 Q70,620.8 80,615.5 Q90,610.7 100,607.6 Q110,606.6 120,606.7 Q130,606.4 140,604.6 Q150,601.0 160,596.4 Q170,592.0 180,588.6 Q190,586.0 200,583.4 Q210,579.7 220,574.7 Q230,569.4 240,565.2 Q250,563.5 260,564.7 Q270,568.0 280,571.8 Q290,574.9 300,576.6 Q310,577.7 320,579.1 Q330,581.4 340,584.3 Q350,586.7 360,587.3 Q370,585.8 380,582.9 Q390,579.9 400,578.5 Q410,579.0 420,580.9 Q430,582.7 440,583.4 Q450,582.3 460,580.3 Q470,578.2 480,577.0 Q490,576.4 500,575.4 Q510,572.8 520,568.4 Q530,562.6 540,557.1 Q550,553.5 560,552.4 Q570,553.4 580,555.2 Q590,556.5 600,556.9 Q610,556.8 620,557.2 Q630,558.6 640,560.9 Q650,562.9 660,563.2 Q670,561.2 680,557.2 Q690,552.8 700,549.4 Q710,547.9 720,548.1 Q730,548.7 740,548.6 Q750,547.4 760,545.6 Q770,544.2 780,544.1 Q790,545.2 800,546.4 Q810,546.3 820,544.4 Q830,540.9 840,537.4 Q850,535.3 860,535.8 Q870,538.6 880,542.7 Q890,546.9 900,550.7 Q910,554.5 920,559.3 Q930,565.7 940,573.6 Q950,581.7 960,588.5 Q970,593.0 980,595.1 Q990,596.1 1000,597.6 Q1010,600.3 1020,604.4 Q1030,608.8 1040,612.3 Q1050,614.5 1060,615.9 Q1070,617.6 1080,620.3 Q1090,624.1 1100,628.1 Q1110,630.6 1120,630.6 Q1130,628.3 1140,624.8 Q1150,621.6 1160,619.9 Q1170,619.9 1180,620.6 Q1190,621.1 1200,620.8 Q1210,620.2 1220,620.4 Q1230,622.3 1240,625.9 Q1250,630.1 1260,633.3 Q1270,634.1 1280,632.4 Q1290,629.0 1300,625.5 Q1310,622.8 1320,621.1 Q1330,619.6 1340,617.3 Q1350,613.6 1360,609.2 Q1370,605.3 1380,602.8 Q1390,602.0 1400,602.1"/><path d="M -20,662.6 Q-10,660.6 0,659.4 Q10,658.3 20,656.1 Q30,652.5 40,647.9 Q50,643.6 60,641.0 Q70,640.5 80,641.3 Q90,642.0 100,641.2 Q110,638.3 120,634.0 Q130,629.5 140,626.0 Q150,623.5 160,621.6 Q170,619.1 180,615.7 Q190,611.8 200,608.8 Q210,608.1 220,610.2 Q230,614.4 240,619.4 Q250,623.4 260,625.8 Q270,627.0 280,627.8 Q290,629.2 300,631.3 Q310,633.3 320,634.1 Q330,632.9 340,630.2 Q350,627.2 360,625.5 Q370,625.7 380,627.5 Q390,629.4 400,630.1 Q410,628.8 420,625.9 Q430,622.4 440,619.5 Q450,617.3 460,615.2 Q470,612.0 480,607.3 Q490,601.4 500,595.7 Q510,591.7 520,590.5 Q530,591.7 540,594.1 Q550,596.2 560,597.3 Q570,597.4 580,597.5 Q590,598.4 600,600.4 Q610,602.4 620,603.4 Q630,602.4 640,599.7 Q650,596.4 660,594.2 Q670,594.1 680,596.0 Q690,598.9 700,601.2 Q710,602.2 720,602.2 Q730,602.0 740,602.7 Q750,604.5 760,606.7 Q770,608.0 780,607.7 Q790,605.8 800,603.6 Q810,602.7 820,604.3 Q830,608.6 840,614.5 Q850,620.6 860,626.1 Q870,630.9 880,636.0 Q890,642.1 900,649.3 Q910,656.9 920,663.3 Q930,667.4 940,669.0 Q950,669.3 960,669.7 Q970,671.4 980,674.7 Q990,678.6 1000,681.9 Q1010,683.7 1020,684.2 Q1030,684.2 1040,684.8 Q1050,686.2 1060,687.8 Q1070,688.2 1080,686.3 Q1090,682.0 1100,676.3 Q1110,670.8 1120,667.0 Q1130,665.3 1140,664.9 Q1150,664.7 1160,663.9 Q1170,662.6 1180,661.6 Q1190,661.9 1200,663.7 Q1210,666.4 1220,668.4 Q1230,668.3 1240,665.8 Q1250,661.5 1260,656.9 Q1270,653.5 1280,651.5 Q1290,650.5 1300,649.2 Q1310,646.9 1320,643.6 Q1330,640.4 1340,638.3 Q1350,637.7 1360,638.1 Q1370,638.1 1380,636.3 Q1390,632.2 1400,626.6"/><path d="M -20,688.7 Q-10,686.7 0,683.7 Q10,680.8 20,679.2 Q30,679.4 40,681.2 Q50,682.9 60,683.1 Q70,681.1 80,677.2 Q90,672.8 100,669.1 Q110,666.7 120,665.3 Q130,664.0 140,661.9 Q150,659.3 160,657.2 Q170,657.0 180,659.4 Q190,663.9 200,669.1 Q210,673.4 220,675.8 Q230,676.3 240,676.0 Q250,676.1 260,676.9 Q270,678.1 280,678.6 Q290,677.5 300,674.9 Q310,671.8 320,669.6 Q330,669.3 340,670.6 Q350,672.3 360,672.9 Q370,671.2 380,667.6 Q390,663.0 400,658.6 Q410,655.2 420,652.4 Q430,649.3 440,645.0 Q450,639.8 460,634.8 Q470,631.3 480,630.7 Q490,632.7 500,636.3 Q510,639.8 520,642.1 Q530,643.2 540,643.7 Q550,644.9 560,647.1 Q570,649.9 580,652.2 Q590,653.0 600,652.3 Q610,650.9 620,650.5 Q630,652.1 640,655.9 Q650,660.8 660,665.5 Q670,668.6 680,670.1 Q690,670.9 700,672.0 Q710,674.0 720,676.5 Q730,678.6 740,679.3 Q750,678.5 760,677.1 Q770,676.8 780,678.8 Q790,683.5 800,690.0 Q810,696.8 820,702.7 Q830,707.4 840,711.6 Q850,716.1 860,721.5 Q870,727.2 880,732.1 Q890,735.0 900,735.4 Q910,734.2 920,733.0 Q930,733.0 940,734.7 Q950,737.4 960,739.8 Q970,740.7 980,739.8 Q990,737.8 1000,735.9 Q1010,734.7 1020,733.7 Q1030,732.0 1040,728.4 Q1050,722.6 1060,715.4 Q1070,708.4 1080,703.1 Q1090,700.3 1100,699.4 Q1110,699.3 1120,698.7 Q1130,697.4 1140,696.0 Q1150,695.4 1160,696.3 Q1170,698.1 1180,699.7 Q1190,699.6 1200,697.3 Q1210,693.2 1220,688.8 Q1230,685.5 1240,684.2 Q1250,684.3 1260,684.7 Q1270,684.2 1280,682.7 Q1290,680.6 1300,679.1 Q1310,678.9 1320,679.6 Q1330,680.1 1340,679.0 Q1350,675.7 1360,670.6 Q1370,665.2 1380,661.2 Q1390,659.3 1400,659.3"/><path d="M -20,724.0 Q-10,724.9 0,727.1 Q10,729.4 20,730.3 Q30,728.8 40,725.0 Q50,720.3 60,716.1 Q70,713.4 80,712.2 Q90,711.4 100,710.3 Q110,708.5 120,706.9 Q130,706.6 140,708.5 Q150,712.5 160,717.2 Q170,721.1 180,722.9 Q190,722.5 200,720.9 Q210,719.4 220,718.9 Q230,719.2 240,719.4 Q250,718.5 260,716.3 Q270,713.4 280,711.1 Q290,710.4 300,711.4 Q310,713.0 320,713.7 Q330,712.2 340,708.4 Q350,703.3 360,698.3 Q370,694.4 380,691.7 Q390,689.4 400,686.6 Q410,683.1 420,679.6 Q430,677.6 440,678.2 Q450,681.6 460,686.7 Q470,692.0 480,696.1 Q490,698.5 500,700.0 Q510,701.7 520,704.5 Q530,708.2 540,712.1 Q550,714.9 560,716.3 Q570,716.9 580,718.2 Q590,721.2 600,726.3 Q610,732.7 620,738.8 Q630,743.2 640,745.5 Q650,746.4 660,746.9 Q670,748.2 680,750.1 Q690,752.0 700,752.8 Q710,752.1 720,750.8 Q730,750.1 740,751.4 Q750,755.4 760,761.3 Q770,767.5 780,772.7 Q790,776.2 800,778.4 Q810,780.5 820,783.2 Q830,786.3 840,789.0 Q850,790.1 860,789.1 Q870,786.4 880,783.5 Q890,781.7 900,781.8 Q910,783.3 920,784.6 Q930,784.6 940,782.5 Q950,779.0 960,775.0 Q970,771.4 980,768.5 Q990,765.3 1000,760.7 Q1010,754.4 1020,746.7 Q1030,739.3 1040,733.7 Q1050,730.8 1060,730.3 Q1070,731.0 1080,731.4 Q1090,731.0 1100,729.9 Q1110,729.3 1120,729.8 Q1130,731.5 1140,733.3 Q1150,733.9 1160,732.4 Q1170,729.3 1180,725.8 Q1190,723.4 1200,723.0 Q1210,724.5 1220,726.7 Q1230,728.1 1240,728.2 Q1250,727.2 1260,726.1 Q1270,725.8 1280,726.3 Q1290,726.8 1300,726.0 Q1310,723.1 1320,718.3 Q1330,712.9 1340,708.7 Q1350,706.8 1360,707.1 Q1370,708.7 1380,710.3 Q1390,711.2 1400,711.6"/><path d="M -20,779.6 Q-10,778.0 0,774.0 Q10,768.6 20,763.6 Q30,760.1 40,758.5 Q50,757.9 60,757.3 Q70,756.0 80,754.5 Q90,753.8 100,754.9 Q110,757.8 120,761.6 Q130,764.8 140,765.9 Q150,764.7 160,762.1 Q170,759.5 180,758.0 Q190,757.8 200,758.2 Q210,758.2 220,756.9 Q230,754.9 240,753.1 Q250,752.7 260,753.9 Q270,755.9 280,757.1 Q290,756.4 300,753.2 Q310,748.5 320,743.7 Q330,740.2 340,738.4 Q350,737.6 360,736.9 Q370,735.8 380,734.7 Q390,734.6 400,736.7 Q410,741.5 420,748.2 Q430,755.1 440,760.7 Q450,764.4 460,766.8 Q470,768.9 480,772.0 Q490,776.4 500,781.3 Q510,785.6 520,788.7 Q530,790.8 540,793.1 Q550,796.6 560,802.0 Q570,808.6 580,814.9 Q590,819.3 600,821.2 Q610,821.0 620,820.0 Q630,819.5 640,819.7 Q650,820.3 660,820.3 Q670,819.1 680,816.9 Q690,815.2 700,815.1 Q710,817.4 720,821.7 Q730,826.5 740,830.2 Q750,831.9 760,832.0 Q770,831.3 780,831.0 Q790,831.5 800,832.1 Q810,831.7 820,829.6 Q830,826.0 840,822.0 Q850,819.1 860,818.0 Q870,818.6 880,819.5 Q890,819.1 900,816.6 Q910,812.2 920,806.9 Q930,802.0 940,797.9 Q950,794.1 960,789.7 Q970,783.9 980,777.0 Q990,770.3 1000,765.4 Q1010,763.3 1020,763.8 Q1030,765.8 1040,767.8 Q1050,768.7 1060,768.6 Q1070,768.3 1080,768.8 Q1090,770.5 1100,772.6 Q1110,774.1 1120,773.9 Q1130,772.0 1140,769.6 Q1150,768.1 1160,768.6 Q1170,771.0 1180,774.4 Q1190,777.2 1200,778.4 Q1210,777.9 1220,776.6 Q1230,775.6 1240,775.3 Q1250,775.1 1260,773.9 Q1270,770.9 1280,766.0 Q1290,760.5 1300,755.8 Q1310,753.4 1320,753.6 Q1330,755.3 1340,757.2 Q1350,758.3 1360,758.5 Q1370,758.5 1380,759.3 Q1390,761.2 1400,763.7"/><path d="M -20,808.5 Q-10,804.2 0,802.0 Q10,801.4 20,801.1 Q30,800.4 40,799.1 Q50,798.1 60,798.3 Q70,800.2 80,803.2 Q90,805.9 100,806.8 Q110,805.5 120,802.6 Q130,799.6 140,798.0 Q150,798.1 160,799.5 Q170,801.0 180,801.6 Q190,801.3 200,800.7 Q210,801.1 220,803.0 Q230,805.7 240,808.0 Q250,808.5 260,806.6 Q270,802.9 280,799.0 Q290,796.4 300,795.8 Q310,796.8 320,798.4 Q330,799.8 340,801.0 Q350,802.7 360,806.1 Q370,811.8 380,819.2 Q390,826.9 400,833.4 Q410,837.8 420,840.3 Q430,842.3 440,845.0 Q450,849.1 460,854.2 Q470,859.1 480,862.9 Q490,865.6 500,867.8 Q510,870.7 520,875.1 Q530,880.5 540,885.6 Q550,888.8 560,889.3 Q570,887.2 580,883.9 Q590,880.8 600,878.7 Q610,877.4 620,876.0 Q630,873.8 640,870.7 Q650,867.6 660,865.8 Q670,866.3 680,868.7 Q690,871.8 700,873.9 Q710,874.0 720,872.1 Q730,869.2 740,866.6 Q750,865.1 760,864.2 Q770,863.1 780,860.9 Q790,857.4 800,853.4 Q810,850.2 820,848.9 Q830,849.4 840,850.4 Q850,850.4 860,848.3 Q870,843.9 880,838.4 Q890,833.0 900,828.6 Q910,825.1 920,821.6 Q930,817.3 940,812.0 Q950,806.9 960,803.2 Q970,802.2 980,803.9 Q990,807.3 1000,810.8 Q1010,813.0 1020,813.7 Q1030,813.7 1040,814.1 Q1050,815.5 1060,817.8 Q1070,819.8 1080,820.5 Q1090,819.8 1100,818.2 Q1110,817.2 1120,818.0 Q1130,820.9 1140,824.7 Q1150,828.1 1160,829.6 Q1170,828.9 1180,826.8 Q1190,824.5 1200,822.7 Q1210,821.3 1220,819.4 Q1230,816.0 1240,811.0 Q1250,805.2 1260,800.2 Q1270,797.3 1280,797.1 Q1290,798.8 1300,800.9 Q1310,802.2 1320,802.3 Q1330,801.6 1340,801.3 Q1350,802.1 1360,803.7 Q1370,805.0 1380,805.0 Q1390,803.1 1400,800.1"/><path d="M -20,843.3 Q-10,843.4 0,842.8 Q10,841.9 20,841.8 Q30,843.3 40,845.9 Q50,848.5 60,849.9 Q70,849.3 80,847.2 Q90,844.9 100,844.0 Q110,845.3 120,848.3 Q130,851.9 140,854.9 Q150,856.7 160,857.9 Q170,859.5 180,862.1 Q190,865.6 200,868.9 Q210,870.7 220,870.1 Q230,867.6 240,864.7 Q250,862.9 260,863.3 Q270,865.7 280,869.1 Q290,872.4 300,875.2 Q310,878.0 320,881.8 Q330,887.3 340,894.3 Q350,901.7 360,907.8 Q370,911.8 380,913.6 Q390,914.5 400,916.0 Q410,918.8 420,923.0 Q430,927.5 440,931.1 Q450,933.4 460,934.7 Q470,936.1 480,938.4 Q490,941.6 500,944.6 Q510,945.9 520,944.3 Q530,940.0 540,934.2 Q550,928.5 560,924.0 Q570,920.8 580,918.3 Q590,915.3 600,911.5 Q610,907.5 620,904.5 Q630,903.4 640,904.3 Q650,906.1 660,907.2 Q670,906.3 680,903.4 Q690,899.3 700,895.4 Q710,892.9 720,891.6 Q730,890.9 740,889.6 Q750,887.3 760,884.4 Q770,882.0 780,881.2 Q790,882.2 800,883.9 Q810,884.8 820,883.6 Q830,880.0 840,874.8 Q850,869.6 860,865.4 Q870,862.5 880,860.2 Q890,857.7 900,854.4 Q910,850.9 920,848.6 Q930,848.5 940,851.0 Q950,855.3 960,859.6 Q970,862.6 980,863.7 Q990,863.5 1000,863.3 Q1010,864.0 1020,865.8 Q1030,867.8 1040,869.1 Q1050,869.0 1060,867.9 Q1070,867.1 1080,867.7 Q1090,870.2 1100,873.8 Q1110,877.0 1120,878.2 Q1130,877.0 1140,873.9 Q1150,870.0 1160,866.6 Q1170,863.9 1180,861.2 Q1190,857.8 1200,853.0 Q1210,847.4 1220,842.4 Q1230,839.5 1240,839.2 Q1250,841.1 1260,843.8 Q1270,845.7 1280,846.1 Q1290,845.4 1300,844.7 Q1310,845.0 1320,846.4 Q1330,848.1 1340,849.1 Q1350,848.7 1360,847.3 Q1370,845.9 1380,846.2 Q1390,848.8 1400,853.2"/><path d="M -20,890.2 Q-10,891.6 0,894.4 Q10,897.7 20,900.2 Q30,901.0 40,900.4 Q50,899.6 60,900.1 Q70,902.8 80,907.7 Q90,913.5 100,918.8 Q110,922.8 120,925.5 Q130,927.9 140,930.9 Q150,934.7 160,938.5 Q170,940.9 180,941.2 Q190,939.5 200,937.0 Q210,935.5 220,936.1 Q230,939.0 240,943.1 Q250,947.3 260,950.7 Q270,953.4 280,956.3 Q290,960.4 300,965.7 Q310,971.5 320,976.2 Q330,978.8 340,979.1 Q350,978.3 360,977.7 Q370,978.7 380,981.3 Q390,984.7 400,987.5 Q410,988.8 420,988.7 Q430,988.2 440,988.2 Q450,988.8 460,989.4 Q470,988.6 480,985.2 Q490,979.1 500,971.4 Q510,963.7 520,957.5 Q530,953.2 540,950.0 Q550,947.1 560,943.5 Q570,939.5 580,936.1 Q590,934.2 600,934.2 Q610,935.4 620,936.3 Q630,935.5 640,932.6 Q650,928.4 660,924.4 Q670,921.9 680,921.2 Q690,921.7 700,922.2 Q710,921.8 720,920.7 Q730,919.7 740,919.9 Q750,921.5 760,924.0 Q770,925.8 780,925.6 Q790,922.9 800,918.2 Q810,913.2 820,909.2 Q830,906.9 840,905.7 Q850,904.6 860,903.0 Q870,900.9 880,899.5 Q890,899.8 900,902.3 Q910,906.5 920,910.9 Q930,913.8 940,914.7 Q950,913.8 960,912.5 Q970,912.1 980,913.0 Q990,914.7 1000,916.1 Q1010,916.4 1020,915.6 Q1030,914.7 1040,914.9 Q1050,916.7 1060,919.7 Q1070,922.4 1080,923.3 Q1090,921.6 1100,917.6 Q1110,912.6 1120,908.0 Q1130,904.4 1140,901.6 Q1150,898.6 1160,894.8 Q1170,890.2 1180,886.1 Q1190,883.8 1200,884.1 Q1210,886.7 1220,890.3 Q1230,893.3 1240,894.8 Q1250,894.7 1260,894.4 Q1270,894.8 1280,896.6 Q1290,899.4 1300,902.0 Q1310,903.7 1320,904.4 Q1330,905.0 1340,907.0 Q1350,911.1 1360,917.1 Q1370,923.8 1380,929.5 Q1390,933.1 1400,934.7"/><path d="M -20,960.1 Q-10,962.6 0,963.8 Q10,964.6 20,966.5 Q30,970.5 40,976.8 Q50,984.2 60,991.2 Q70,996.5 80,1000.1 Q90,1002.6 100,1005.1 Q110,1008.1 120,1011.3 Q130,1013.4 140,1013.7 Q150,1011.9 160,1009.2 Q170,1007.0 180,1006.9 Q190,1009.1 200,1012.8 Q210,1016.7 220,1019.5 Q230,1021.1 240,1022.2 Q250,1023.9 260,1026.5 Q270,1029.7 280,1032.3 Q290,1033.0 300,1031.6 Q310,1028.9 320,1026.3 Q330,1025.3 340,1026.3 Q350,1028.4 360,1030.3 Q370,1030.8 380,1029.6 Q390,1027.5 400,1025.3 Q410,1023.8 420,1022.4 Q430,1020.0 440,1015.6 Q450,1008.7 460,1000.2 Q470,991.8 480,984.9 Q490,980.4 500,977.7 Q510,975.7 520,973.3 Q530,970.3 540,967.3 Q550,965.5 560,965.4 Q570,966.6 580,967.9 Q590,967.8 600,965.8 Q610,962.5 620,959.2 Q630,957.4 640,957.8 Q650,959.9 660,962.4 Q670,964.2 680,965.0 Q690,965.3 700,966.2 Q710,968.2 720,971.0 Q730,973.3 740,973.7 Q750,971.4 760,967.1 Q770,962.1 780,958.0 Q790,955.7 800,955.0 Q810,954.8 820,954.3 Q830,953.1 840,951.9 Q850,951.9 860,953.7 Q870,957.0 880,960.6 Q890,963.0 900,963.2 Q910,961.5 920,959.1 Q930,957.4 940,957.3 Q950,958.6 960,960.2 Q970,961.0 980,960.8 Q990,960.1 1000,960.0 Q1010,961.3 1020,963.7 Q1030,966.2 1040,967.1 Q1050,965.3 1060,961.2 Q1070,955.8 1080,950.8 Q1090,947.2 1100,944.9 Q1110,943.2 1120,941.1 Q1130,938.4 1140,936.0 Q1150,934.9 1160,936.3 Q1170,939.9 1180,944.8 Q1190,949.2 1200,952.0 Q1210,953.0 1220,953.4 Q1230,954.3 1240,956.8 Q1250,960.7 1260,965.0 Q1270,968.8 1280,971.7 Q1290,974.2 1300,977.5 Q1310,982.6 1320,989.4 Q1330,997.0 1340,1003.5 Q1350,1007.7 1360,1009.3 Q1370,1009.3 1380,1009.0 Q1390,1009.5 1400,1010.6"/><path d="M -20,1039.5 Q-10,1044.1 0,1050.7 Q10,1058.6 20,1066.0 Q30,1071.6 40,1074.8 Q50,1076.3 60,1077.2 Q70,1078.4 80,1079.9 Q90,1080.7 100,1080.0 Q110,1077.4 120,1073.7 Q130,1070.3 140,1068.6 Q150,1069.3 160,1071.7 Q170,1074.3 180,1075.8 Q190,1075.8 200,1074.6 Q210,1073.5 220,1073.2 Q230,1073.7 240,1074.0 Q250,1073.1 260,1070.3 Q270,1066.3 280,1062.4 Q290,1060.0 300,1059.8 Q310,1061.2 320,1062.7 Q330,1063.0 340,1061.5 Q350,1058.5 360,1055.1 Q370,1052.1 380,1049.6 Q390,1046.7 400,1042.3 Q410,1035.8 420,1027.8 Q430,1019.8 440,1013.5 Q450,1009.8 460,1008.3 Q470,1007.9 480,1007.3 Q490,1005.9 500,1004.0 Q510,1002.8 520,1002.9 Q530,1004.4 540,1006.3 Q550,1007.3 560,1006.5 Q570,1004.3 580,1002.1 Q590,1001.2 600,1002.6 Q610,1006.0 620,1010.2 Q630,1013.7 640,1016.0 Q650,1017.2 660,1018.2 Q670,1019.8 680,1022.1 Q690,1024.1 700,1024.3 Q710,1022.1 720,1017.7 Q730,1012.3 740,1007.7 Q750,1005.0 760,1004.3 Q770,1004.5 780,1004.5 Q790,1003.7 800,1002.4 Q810,1001.7 820,1002.3 Q830,1004.4 840,1007.0 Q850,1008.6 860,1008.2 Q870,1005.9 880,1002.7 Q890,1000.2 900,999.6 Q910,1000.9 920,1003.1 Q930,1005.0 940,1005.8 Q950,1005.9 960,1006.1 Q970,1007.3 980,1009.7 Q990,1012.3 1000,1013.7 Q1010,1012.6 1020,1009.2 Q1030,1004.3 1040,999.8 Q1050,996.9 1060,995.8 Q1070,995.9 1080,996.1 Q1090,995.9 1100,995.5 Q1110,996.0 1120,998.5 Q1130,1003.1 1140,1008.9 Q1150,1014.4 1160,1018.4 Q1170,1020.4 1180,1021.3 Q1190,1022.6 1200,1025.4 Q1210,1030.0 1220,1035.5 Q1230,1040.7 1240,1045.1 Q1250,1048.7 1260,1052.5 Q1270,1057.6 1280,1064.0 Q1290,1071.1 1300,1077.1 Q1310,1080.7 1320,1081.4 Q1330,1080.0 1340,1077.9 Q1350,1076.4 1360,1075.9 Q1370,1075.9 1380,1075.4 Q1390,1073.8 1400,1071.4"/><path d="M -20,1135.7 Q-10,1140.2 0,1142.1 Q10,1141.6 20,1140.1 Q30,1138.6 40,1137.6 Q50,1136.4 60,1134.3 Q70,1130.5 80,1125.5 Q90,1120.6 100,1117.2 Q110,1116.1 120,1116.8 Q130,1118.0 140,1118.2 Q150,1116.5 160,1113.4 Q170,1109.9 180,1107.1 Q190,1105.4 200,1104.2 Q210,1102.3 220,1099.2 Q230,1095.0 240,1090.8 Q250,1088.1 260,1087.7 Q270,1089.2 280,1091.1 Q290,1092.1 300,1091.0 Q310,1088.1 320,1084.5 Q330,1081.0 340,1078.3 Q350,1075.7 360,1072.1 Q370,1067.0 380,1060.5 Q390,1053.9 400,1048.9 Q410,1046.4 420,1046.5 Q430,1047.9 440,1049.2 Q450,1049.5 460,1048.8 Q470,1048.0 480,1048.3 Q490,1049.8 500,1052.0 Q510,1053.7 520,1054.0 Q530,1052.9 540,1051.4 Q550,1051.2 560,1053.1 Q570,1057.2 580,1062.3 Q590,1066.9 600,1069.8 Q610,1071.1 620,1071.6 Q630,1072.2 640,1073.2 Q650,1074.2 660,1073.8 Q670,1071.2 680,1066.5 Q690,1060.6 700,1055.4 Q710,1052.2 720,1051.2 Q730,1051.6 740,1052.0 Q750,1051.5 760,1050.2 Q770,1048.8 780,1048.3 Q790,1049.2 800,1050.9 Q810,1052.1 820,1051.7 Q830,1049.5 840,1046.4 Q850,1044.0 860,1043.7 Q870,1045.6 880,1049.0 Q890,1052.6 900,1055.1 Q910,1056.6 920,1057.7 Q930,1059.4 940,1062.1 Q950,1065.2 960,1067.4 Q970,1067.6 980,1065.4 Q990,1061.7 1000,1058.2 Q1010,1056.3 1020,1056.6 Q1030,1058.6 1040,1061.1 Q1050,1063.1 1060,1064.5 Q1070,1066.3 1080,1069.4 Q1090,1074.2 1100,1080.3 Q1110,1086.2 1120,1090.5 Q1130,1092.9 1140,1093.8 Q1150,1094.7 1160,1097.1 Q1170,1101.4 1180,1107.1 Q1190,1112.8 1200,1117.6 Q1210,1121.3 1220,1124.6 Q1230,1128.4 1240,1133.2 Q1250,1138.4 1260,1142.8 Q1270,1144.8 1280,1143.7 Q1290,1140.3 1300,1135.8 Q1310,1131.9 1320,1129.3 Q1330,1127.6 1340,1126.0 Q1350,1123.5 1360,1120.1 Q1370,1116.7 1380,1114.4 Q1390,1113.9 1400,1114.9"/><path d="M -20,1189.2 Q-10,1184.8 0,1181.2 Q10,1178.1 20,1174.6 Q30,1169.9 40,1164.2 Q50,1158.2 60,1153.5 Q70,1150.9 80,1150.3 Q90,1150.4 100,1149.7 Q110,1147.2 120,1142.9 Q130,1138.0 140,1133.7 Q150,1130.9 160,1129.2 Q170,1127.6 180,1125.3 Q190,1122.1 200,1118.9 Q210,1116.9 220,1117.2 Q230,1119.4 240,1122.5 Q250,1124.7 260,1124.8 Q270,1122.8 280,1119.5 Q290,1116.2 300,1113.7 Q310,1111.8 320,1109.6 Q330,1106.3 340,1101.7 Q350,1096.9 360,1093.3 Q370,1092.1 380,1093.4 Q390,1096.2 400,1098.9 Q410,1100.3 420,1100.2 Q430,1099.5 440,1099.3 Q450,1100.3 460,1102.3 Q470,1104.2 480,1105.0 Q490,1104.6 500,1103.6 Q510,1103.4 520,1105.3 Q530,1109.4 540,1114.6 Q550,1119.4 560,1122.5 Q570,1123.4 580,1122.9 Q590,1122.0 600,1121.4 Q610,1121.1 620,1120.0 Q630,1117.1 640,1112.2 Q650,1106.3 660,1100.9 Q670,1097.4 680,1096.3 Q690,1097.1 700,1098.1 Q710,1098.3 720,1097.3 Q730,1095.7 740,1094.7 Q750,1094.9 760,1096.3 Q770,1097.6 780,1097.9 Q790,1096.7 800,1094.7 Q810,1093.3 820,1094.0 Q830,1097.2 840,1102.3 Q850,1107.9 860,1112.5 Q870,1115.7 880,1118.0 Q890,1120.4 900,1123.4 Q910,1127.0 920,1130.1 Q930,1131.4 940,1130.5 Q950,1128.0 960,1125.5 Q970,1124.5 980,1125.8 Q990,1129.1 1000,1133.0 Q1010,1136.5 1020,1139.0 Q1030,1141.1 1040,1143.8 Q1050,1147.8 1060,1152.9 Q1070,1158.0 1080,1161.7 Q1090,1163.4 1100,1163.5 Q1110,1163.4 1120,1164.5 Q1130,1167.6 1140,1172.4 Q1150,1177.6 1160,1181.9 Q1170,1184.8 1180,1186.6 Q1190,1188.3 1200,1190.6 Q1210,1193.2 1220,1195.2 Q1230,1195.0 1240,1192.0 Q1250,1186.4 1260,1179.7 Q1270,1173.5 1280,1169.0 Q1290,1165.9 1300,1163.4 Q1310,1160.3 1320,1156.4 Q1330,1152.0 1340,1148.3 Q1350,1146.2 1360,1145.5 Q1370,1145.3 1380,1144.0 Q1390,1140.8 1400,1135.7"/><path d="M -20,1204.0 Q-10,1199.3 0,1193.6 Q10,1187.6 20,1182.5 Q30,1179.2 40,1178.0 Q50,1177.8 60,1177.1 Q70,1174.6 80,1170.3 Q90,1165.1 100,1160.6 Q110,1157.6 120,1156.4 Q130,1156.1 140,1155.6 Q150,1154.4 160,1153.0 Q170,1152.5 180,1153.9 Q190,1157.3 200,1161.6 Q210,1165.1 220,1166.6 Q230,1165.5 240,1162.8 Q250,1159.8 260,1157.6 Q270,1156.4 280,1155.4 Q290,1153.7 300,1150.9 Q310,1147.6 320,1145.0 Q330,1144.5 340,1146.3 Q350,1149.6 360,1152.8 Q370,1154.6 380,1154.5 Q390,1153.2 400,1152.0 Q410,1151.9 420,1153.0 Q430,1154.6 440,1155.6 Q450,1155.5 460,1154.7 Q470,1154.4 480,1155.9 Q490,1159.5 500,1164.5 Q510,1169.1 520,1172.0 Q530,1172.4 540,1170.9 Q550,1168.7 560,1166.8 Q570,1165.4 580,1163.8 Q590,1161.2 600,1156.9 Q610,1151.6 620,1146.7 Q630,1143.6 640,1143.0 Q650,1144.5 660,1146.6 Q670,1147.9 680,1147.8 Q690,1146.7 700,1145.7 Q710,1145.9 720,1147.4 Q730,1149.5 740,1151.1 Q750,1151.6 760,1151.3 Q770,1151.5 780,1153.6 Q790,1158.3 800,1165.1 Q810,1172.5 820,1179.0 Q830,1183.7 840,1186.9 Q850,1189.5 860,1192.5 Q870,1196.0 880,1199.3 Q890,1201.2 900,1201.1 Q910,1199.4 920,1197.3 Q930,1196.5 940,1197.9 Q950,1201.3 960,1205.7 Q970,1209.5 980,1211.9 Q990,1213.2 1000,1214.3 Q1010,1216.3 1020,1219.3 Q1030,1222.4 1040,1224.6 Q1050,1225.0 1060,1223.7 Q1070,1221.9 1080,1221.1 Q1090,1222.5 1100,1225.8 Q1110,1229.8 1120,1233.1 Q1130,1234.7 1140,1234.8 Q1150,1234.2 1160,1233.8 Q1170,1233.7 1180,1233.3 Q1190,1231.3 1200,1226.7 Q1210,1219.7 1220,1211.6 Q1230,1204.0 1240,1198.2 Q1250,1194.5 1260,1191.8 Q1270,1189.1 1280,1185.4 Q1290,1181.0 1300,1176.8 Q1310,1173.9 1320,1172.4 Q1330,1171.7 1340,1170.5 Q1350,1167.6 1360,1163.1 Q1370,1157.9 1380,1153.7 Q1390,1151.7 1400,1152.0"/><path d="M -20,1211.3 Q-10,1208.4 0,1207.3 Q10,1207.4 20,1207.4 Q30,1205.8 40,1202.3 Q50,1197.8 60,1193.8 Q70,1191.5 80,1191.4 Q90,1192.8 100,1194.5 Q110,1195.7 120,1196.4 Q130,1197.5 140,1200.0 Q150,1204.2 160,1209.3 Q170,1213.7 180,1216.1 Q190,1215.7 200,1213.3 Q210,1210.3 220,1208.0 Q230,1207.0 240,1206.6 Q250,1206.0 260,1204.4 Q270,1202.1 280,1200.0 Q290,1199.4 300,1200.8 Q310,1203.7 320,1206.6 Q330,1208.1 340,1207.5 Q350,1205.2 360,1202.7 Q370,1201.2 380,1201.2 Q390,1202.3 400,1203.4 Q410,1203.7 420,1203.2 Q430,1203.0 440,1204.2 Q450,1207.4 460,1212.0 Q470,1216.5 480,1219.4 Q490,1219.7 500,1217.8 Q510,1214.9 520,1212.2 Q530,1210.4 540,1209.1 Q550,1207.4 560,1204.6 Q570,1200.8 580,1197.2 Q590,1195.2 600,1195.6 Q610,1198.1 620,1201.6 Q630,1204.3 640,1205.4 Q650,1205.2 660,1204.6 Q670,1205.0 680,1206.9 Q690,1210.0 700,1213.1 Q710,1215.4 720,1216.9 Q730,1218.7 740,1222.0 Q750,1227.7 760,1235.4 Q770,1243.9 780,1251.5 Q790,1256.9 800,1260.2 Q810,1262.3 820,1264.3 Q830,1266.8 840,1269.3 Q850,1271.0 860,1270.9 Q870,1269.0 880,1266.6 Q890,1265.0 900,1265.5 Q910,1268.0 920,1271.5 Q930,1274.4 940,1275.7 Q950,1275.3 960,1274.1 Q970,1273.3 980,1273.4 Q990,1274.0 1000,1274.2 Q1010,1272.9 1020,1270.2 Q1030,1266.8 1040,1264.3 Q1050,1263.9 1060,1265.7 Q1070,1268.6 1080,1270.9 Q1090,1271.6 1100,1270.3 Q1110,1267.9 1120,1265.3 Q1130,1263.1 1140,1261.0 Q1150,1257.9 1160,1252.8 Q1170,1245.6 1180,1237.3 Q1190,1229.5 1200,1223.7 Q1210,1220.3 1220,1218.5 Q1230,1216.9 1240,1214.4 Q1250,1210.9 1260,1207.2 Q1270,1204.2 1280,1202.7 Q1290,1202.3 1300,1201.7 Q1310,1200.1 1320,1196.9 Q1330,1193.1 1340,1190.1 Q1350,1189.3 1360,1191.2 Q1370,1194.9 1380,1199.1 Q1390,1202.4 1400,1204.5"/><path d="M -20,1245.4 Q-10,1245.0 0,1242.8 Q10,1239.4 20,1236.3 Q30,1234.9 40,1236.0 Q50,1238.9 60,1242.6 Q70,1245.8 80,1248.3 Q90,1250.5 100,1253.5 Q110,1257.8 120,1262.8 Q130,1267.4 140,1269.9 Q150,1269.6 160,1267.1 Q170,1263.6 180,1260.7 Q190,1259.3 200,1259.0 Q210,1259.0 220,1258.1 Q230,1256.3 240,1254.2 Q250,1253.0 260,1253.5 Q270,1255.4 280,1257.5 Q290,1258.3 300,1257.0 Q310,1253.8 320,1250.2 Q330,1247.6 340,1246.9 Q350,1247.8 360,1249.3 Q370,1250.4 380,1250.9 Q390,1251.2 400,1252.6 Q410,1255.7 420,1260.3 Q430,1265.0 440,1268.3 Q450,1269.1 460,1267.5 Q470,1264.6 480,1262.0 Q490,1260.5 500,1260.2 Q510,1260.0 520,1259.2 Q530,1257.5 540,1255.8 Q550,1255.2 560,1256.7 Q570,1260.3 580,1264.9 Q590,1268.8 600,1271.1 Q610,1271.6 620,1271.4 Q630,1271.8 640,1273.8 Q650,1277.4 660,1281.5 Q670,1285.2 680,1288.1 Q690,1290.8 700,1294.6 Q710,1300.3 720,1307.9 Q730,1316.3 740,1323.6 Q750,1328.6 760,1331.0 Q770,1331.6 780,1331.6 Q790,1332.1 800,1333.0 Q810,1333.4 820,1332.5 Q830,1329.9 840,1326.5 Q850,1323.5 860,1322.3 Q870,1323.1 880,1324.9 Q890,1326.2 900,1325.8 Q910,1323.4 920,1319.7 Q930,1316.0 940,1313.2 Q950,1311.5 960,1309.9 Q970,1307.4 980,1303.8 Q990,1299.6 1000,1296.1 Q1010,1294.6 1020,1295.5 Q1030,1297.7 1040,1299.8 Q1050,1300.2 1060,1298.5 Q1070,1295.2 1080,1291.4 Q1090,1288.2 1100,1285.4 Q1110,1282.2 1120,1277.8 Q1130,1271.6 1140,1264.4 Q1150,1257.7 1160,1252.9 Q1170,1250.6 1180,1250.2 Q1190,1250.4 1200,1249.7 Q1210,1247.7 1220,1244.9 Q1230,1242.4 1240,1241.2 Q1250,1241.2 1260,1241.6 Q1270,1241.4 1280,1239.9 Q1290,1237.7 1300,1236.1 Q1310,1236.5 1320,1239.6 Q1330,1244.8 1340,1250.6 Q1350,1255.4 1360,1258.7 Q1370,1260.6 1380,1262.2 Q1390,1264.2 1400,1266.7"/><path d="M -20,1286.9 Q-10,1286.1 0,1287.9 Q10,1291.8 20,1296.8 Q30,1301.4 40,1304.8 Q50,1307.5 60,1310.2 Q70,1313.6 80,1317.8 Q90,1321.6 100,1323.6 Q110,1323.0 120,1319.9 Q130,1315.7 140,1312.1 Q150,1310.0 160,1309.5 Q170,1309.6 180,1309.3 Q190,1307.8 200,1305.6 Q210,1303.8 220,1303.3 Q230,1304.1 240,1305.3 Q250,1305.6 260,1304.0 Q270,1300.6 280,1296.6 Q290,1293.6 300,1292.8 Q310,1294.1 320,1296.7 Q330,1299.3 340,1301.3 Q350,1302.9 360,1305.0 Q370,1308.5 380,1313.4 Q390,1318.7 400,1322.8 Q410,1324.5 420,1323.8 Q430,1321.6 440,1319.5 Q450,1318.7 460,1319.6 Q470,1321.1 480,1322.5 Q490,1322.9 500,1322.9 Q510,1323.5 520,1325.7 Q530,1329.7 540,1334.7 Q550,1339.2 560,1341.9 Q570,1342.5 580,1342.0 Q590,1341.9 600,1343.3 Q610,1346.5 620,1350.8 Q630,1354.9 640,1358.3 Q650,1361.1 660,1364.4 Q670,1369.0 680,1375.2 Q690,1382.1 700,1388.1 Q710,1391.6 720,1392.2 Q730,1390.5 740,1388.1 Q750,1386.0 760,1384.6 Q770,1383.4 780,1381.3 Q790,1377.7 800,1373.2 Q810,1368.7 820,1365.7 Q830,1364.4 840,1364.4 Q850,1364.1 860,1362.2 Q870,1358.1 880,1352.4 Q890,1346.5 900,1341.7 Q910,1338.3 920,1335.8 Q930,1333.2 940,1329.7 Q950,1325.8 960,1322.5 Q970,1321.0 980,1321.7 Q990,1324.2 1000,1326.7 Q1010,1327.8 1020,1326.6 Q1030,1323.4 1040,1319.6 Q1050,1316.2 1060,1313.7 Q1070,1311.5 1080,1308.6 Q1090,1304.4 1100,1299.2 Q1110,1294.3 1120,1291.0 Q1130,1290.1 1140,1291.3 Q1150,1293.2 1160,1294.3 Q1170,1293.7 1180,1291.8 Q1190,1289.7 1200,1288.5 Q1210,1288.8 1220,1289.9 Q1230,1290.8 1240,1290.7 Q1250,1289.8 1260,1289.3 Q1270,1290.4 1280,1294.1 Q1290,1299.9 1300,1306.3 Q1310,1311.9 1320,1315.4 Q1330,1317.1 1340,1317.8 Q1350,1318.6 1360,1319.7 Q1370,1320.8 1380,1320.7 Q1390,1318.6 1400,1314.7"/><path d="M -20,1352.5 Q-10,1357.6 0,1361.4 Q10,1363.8 20,1365.6 Q30,1367.7 40,1370.4 Q50,1373.0 60,1374.2 Q70,1373.1 80,1369.6 Q90,1365.0 100,1360.7 Q110,1358.2 120,1357.6 Q130,1358.1 140,1358.4 Q150,1357.5 160,1355.6 Q170,1353.5 180,1352.3 Q190,1352.3 200,1353.1 Q210,1353.5 220,1352.2 Q230,1349.4 240,1345.9 Q250,1343.3 260,1343.1 Q270,1345.5 280,1349.7 Q290,1354.2 300,1358.2 Q310,1361.4 320,1364.6 Q330,1368.7 340,1374.0 Q350,1379.7 360,1384.6 Q370,1387.3 380,1387.6 Q390,1386.2 400,1384.7 Q410,1384.6 420,1386.2 Q430,1389.1 440,1392.0 Q450,1394.0 460,1395.1 Q470,1396.0 480,1398.0 Q490,1401.3 500,1405.6 Q510,1409.5 520,1411.6 Q530,1411.5 540,1410.0 Q550,1408.5 560,1408.4 Q570,1410.4 580,1413.8 Q590,1417.5 600,1420.5 Q610,1422.5 620,1424.5 Q630,1427.2 640,1431.1 Q650,1435.7 660,1439.5 Q670,1441.0 680,1439.5 Q690,1435.5 700,1430.5 Q710,1425.9 720,1422.4 Q730,1419.7 740,1416.7 Q750,1412.6 760,1407.4 Q770,1402.0 780,1397.6 Q790,1394.9 800,1393.5 Q810,1392.2 820,1389.4 Q830,1384.6 840,1378.0 Q850,1371.1 860,1365.3 Q870,1361.5 880,1359.2 Q890,1357.5 900,1355.5 Q910,1353.1 920,1351.0 Q930,1350.4 940,1351.9 Q950,1355.2 960,1358.8 Q970,1361.1 980,1361.0 Q990,1358.8 1000,1355.6 Q1010,1352.7 1020,1350.9 Q1030,1350.0 1040,1349.0 Q1050,1347.1 1060,1344.1 Q1070,1341.1 1080,1339.3 Q1090,1339.6 1100,1341.8 Q1110,1344.8 1120,1347.0 Q1130,1347.2 1140,1345.7 Q1150,1343.5 1160,1342.0 Q1170,1341.9 1180,1343.0 Q1190,1344.4 1200,1345.2 Q1210,1345.2 1220,1345.3 Q1230,1346.6 1240,1350.0 Q1250,1355.6 1260,1361.9 Q1270,1367.3 1280,1370.6 Q1290,1371.5 1300,1371.0 Q1310,1370.2 1320,1369.9 Q1330,1369.9 1340,1369.3 Q1350,1367.3 1360,1363.7 Q1370,1359.3 1380,1355.7 Q1390,1354.1 1400,1354.6"/><path d="M -20,1417.8 Q-10,1418.5 0,1419.6 Q10,1421.1 20,1421.7 Q30,1420.5 40,1417.2 Q50,1412.7 60,1408.5 Q70,1406.1 80,1405.8 Q90,1407.1 100,1408.4 Q110,1408.7 120,1407.5 Q130,1405.7 140,1404.3 Q150,1404.1 160,1404.9 Q170,1405.8 180,1405.5 Q190,1403.9 200,1401.7 Q210,1400.2 220,1401.1 Q230,1404.8 240,1410.6 Q250,1417.1 260,1423.0 Q270,1427.7 280,1431.8 Q290,1436.1 300,1441.3 Q310,1447.0 320,1452.2 Q330,1455.4 340,1456.2 Q350,1455.2 360,1453.9 Q370,1453.7 380,1455.5 Q390,1458.7 400,1462.1 Q410,1464.6 420,1465.7 Q430,1466.0 440,1466.6 Q450,1468.1 460,1470.5 Q470,1472.6 480,1473.2 Q490,1471.6 500,1468.4 Q510,1465.0 520,1463.0 Q530,1463.1 540,1465.1 Q550,1467.8 560,1469.9 Q570,1470.9 580,1471.1 Q590,1471.6 600,1473.0 Q610,1475.1 620,1476.7 Q630,1476.3 640,1473.1 Q650,1467.4 660,1460.7 Q670,1454.4 680,1449.6 Q690,1446.2 700,1443.1 Q710,1439.4 720,1434.5 Q730,1429.1 740,1424.3 Q750,1421.0 760,1419.0 Q770,1417.4 780,1414.8 Q790,1410.3 800,1404.0 Q810,1397.4 820,1391.9 Q830,1388.7 840,1387.6 Q850,1387.8 860,1388.0 Q870,1387.9 880,1387.7 Q890,1388.6 900,1391.2 Q910,1395.4 920,1400.1 Q930,1403.7 940,1405.0 Q950,1403.8 960,1401.3 Q970,1399.0 980,1397.9 Q990,1398.1 1000,1398.7 Q1010,1398.7 1020,1397.7 Q1030,1396.1 1040,1395.2 Q1050,1395.8 1060,1398.2 Q1070,1401.4 1080,1403.7 Q1090,1404.1 1100,1402.4 Q1110,1399.5 1120,1397.0 Q1130,1396.0 1140,1396.6 Q1150,1398.0 1160,1399.3 Q1170,1399.8 1180,1400.0 Q1190,1401.1 1200,1404.0 Q1210,1408.8 1220,1414.5 Q1230,1419.4 1240,1422.2 Q1250,1422.4 1260,1420.8 Q1270,1418.7 1280,1417.2 Q1290,1416.5 1300,1415.9 Q1310,1414.5 1320,1411.7 Q1330,1408.2 1340,1405.1 Q1350,1403.8 1360,1404.6 Q1370,1406.7 1380,1408.7 Q1390,1409.2 1400,1407.8"/><path d="M -20,1468.9 Q-10,1468.2 0,1465.9 Q10,1462.5 20,1459.2 Q30,1457.5 40,1458.2 Q50,1460.5 60,1463.3 Q70,1464.9 80,1465.0 Q90,1463.8 100,1462.6 Q110,1462.4 120,1463.4 Q130,1465.0 140,1466.0 Q150,1465.8 160,1465.0 Q170,1464.8 180,1466.7 Q190,1471.4 200,1478.4 Q210,1486.2 220,1493.3 Q230,1498.9 240,1503.1 Q250,1506.9 260,1511.1 Q270,1515.8 280,1520.3 Q290,1523.2 300,1523.8 Q310,1522.5 320,1520.6 Q330,1519.6 340,1520.4 Q350,1522.9 360,1525.8 Q370,1527.7 380,1527.9 Q390,1526.6 400,1524.9 Q410,1523.8 420,1523.4 Q430,1523.1 440,1521.6 Q450,1518.3 460,1513.4 Q470,1508.1 480,1504.2 Q490,1502.5 500,1503.1 Q510,1504.8 520,1506.1 Q530,1506.3 540,1505.2 Q550,1504.0 560,1503.3 Q570,1503.4 580,1503.3 Q590,1501.9 600,1498.0 Q610,1491.8 620,1484.6 Q630,1477.9 640,1472.9 Q650,1469.9 660,1467.8 Q670,1465.4 680,1461.9 Q690,1457.5 700,1453.3 Q710,1450.1 720,1448.4 Q730,1447.3 740,1445.5 Q750,1442.2 760,1437.2 Q770,1431.7 780,1427.3 Q790,1425.3 800,1425.9 Q810,1428.2 820,1431.0 Q830,1433.2 840,1435.1 Q850,1437.2 860,1440.7 Q870,1445.5 880,1450.8 Q890,1455.1 900,1457.3 Q910,1456.9 920,1454.8 Q930,1452.7 940,1451.9 Q950,1452.6 960,1454.1 Q970,1455.4 980,1455.5 Q990,1454.7 1000,1453.9 Q1010,1454.1 1020,1455.8 Q1030,1458.1 1040,1459.9 Q1050,1459.7 1060,1457.3 Q1070,1453.5 1080,1449.9 Q1090,1447.7 1100,1447.6 Q1110,1448.9 1120,1450.5 Q1130,1451.5 1140,1452.1 Q1150,1453.0 1160,1455.3 Q1170,1459.4 1180,1464.4 Q1190,1469.0 1200,1471.5 Q1210,1471.4 1220,1469.3 Q1230,1466.6 1240,1464.7 Q1250,1464.0 1260,1464.0 Q1270,1463.9 1280,1462.7 Q1290,1460.7 1300,1458.8 Q1310,1458.3 1320,1459.7 Q1330,1462.6 1340,1465.5 Q1350,1467.0 1360,1466.5 Q1370,1464.5 1380,1462.3 Q1390,1461.3 1400,1462.2"/><path d="M -20,1516.3 Q-10,1515.8 0,1517.5 Q10,1521.1 20,1525.1 Q30,1528.1 40,1529.2 Q50,1528.7 60,1527.6 Q70,1527.2 80,1528.2 Q90,1530.1 100,1532.0 Q110,1533.0 120,1533.3 Q130,1533.9 140,1536.2 Q150,1541.1 160,1548.1 Q170,1556.1 180,1563.4 Q190,1568.7 200,1572.0 Q210,1574.3 220,1576.6 Q230,1579.4 240,1582.1 Q250,1583.8 260,1583.5 Q270,1581.3 280,1578.2 Q290,1575.7 300,1575.0 Q310,1575.9 320,1577.5 Q330,1578.1 340,1576.8 Q350,1573.6 360,1569.4 Q370,1565.4 380,1562.2 Q390,1559.5 400,1556.2 Q410,1551.5 420,1545.5 Q430,1539.1 440,1533.9 Q450,1531.1 460,1530.9 Q470,1532.2 480,1533.5 Q490,1533.5 500,1532.2 Q510,1530.1 520,1528.3 Q530,1527.3 540,1526.6 Q550,1525.1 560,1521.8 Q570,1516.4 580,1510.1 Q590,1504.2 600,1500.2 Q610,1498.4 620,1498.1 Q630,1497.7 640,1496.3 Q650,1493.6 660,1490.5 Q670,1488.0 680,1486.8 Q690,1486.4 700,1485.9 Q710,1484.0 720,1480.7 Q730,1476.7 740,1473.6 Q750,1472.8 760,1474.9 Q770,1479.0 780,1483.8 Q790,1487.9 800,1491.2 Q810,1494.1 820,1497.6 Q830,1502.1 840,1507.2 Q850,1511.5 860,1513.8 Q870,1513.6 880,1511.6 Q890,1509.2 900,1508.1 Q910,1508.6 920,1510.4 Q930,1512.2 940,1513.0 Q950,1512.4 960,1511.1 Q970,1510.4 980,1510.7 Q990,1511.8 1000,1512.5 Q1010,1511.6 1020,1508.6 Q1030,1504.1 1040,1499.6 Q1050,1496.6 1060,1496.1 Q1070,1497.5 1080,1499.7 Q1090,1501.6 1100,1502.9 Q1110,1504.1 1120,1506.3 Q1130,1509.9 1140,1514.6 Q1150,1519.1 1160,1522.0 Q1170,1522.3 1180,1520.6 Q1190,1518.1 1200,1516.4 Q1210,1516.3 1220,1517.6 Q1230,1519.2 1240,1520.0 Q1250,1519.9 1260,1519.6 Q1270,1520.0 1280,1522.0 Q1290,1525.4 1300,1529.0 Q1310,1531.4 1320,1531.6 Q1330,1530.1 1340,1528.1 Q1350,1527.2 1360,1528.2 Q1370,1531.2 1380,1534.9 Q1390,1538.5 1400,1541.5"/><path d="M -20,1592.7 Q-10,1596.4 0,1598.0 Q10,1597.5 20,1596.0 Q30,1594.9 40,1595.1 Q50,1596.6 60,1598.6 Q70,1600.1 80,1600.7 Q90,1601.4 100,1603.2 Q110,1607.1 120,1613.1 Q130,1620.1 140,1626.2 Q150,1630.3 160,1631.9 Q170,1631.9 180,1631.5 Q190,1631.6 200,1632.1 Q210,1632.1 220,1630.6 Q230,1627.3 240,1622.9 Q250,1618.9 260,1616.4 Q270,1615.6 280,1615.7 Q290,1615.0 300,1612.4 Q310,1607.5 320,1601.3 Q330,1594.9 340,1589.5 Q350,1585.1 360,1580.8 Q370,1575.8 380,1569.8 Q390,1563.5 400,1558.3 Q410,1555.5 420,1555.4 Q430,1557.2 440,1559.3 Q450,1560.2 460,1559.4 Q470,1557.5 480,1555.6 Q490,1554.5 500,1554.1 Q510,1553.6 520,1551.8 Q530,1548.3 540,1543.8 Q550,1539.6 560,1537.3 Q570,1537.2 580,1538.8 Q590,1540.6 600,1541.3 Q610,1540.4 620,1538.4 Q630,1536.5 640,1535.6 Q650,1535.6 660,1535.9 Q670,1535.3 680,1533.3 Q690,1530.6 700,1528.5 Q710,1528.6 720,1531.4 Q730,1536.5 740,1542.4 Q750,1547.6 760,1551.5 Q770,1554.3 780,1557.0 Q790,1560.5 800,1564.4 Q810,1568.0 820,1569.9 Q830,1569.5 840,1567.2 Q850,1564.3 860,1562.6 Q870,1562.7 880,1564.3 Q890,1566.3 900,1567.3 Q910,1566.8 920,1565.0 Q930,1563.2 940,1562.2 Q950,1562.0 960,1561.8 Q970,1560.5 980,1557.3 Q990,1552.8 1000,1548.1 Q1010,1545.2 1020,1544.8 Q1030,1546.8 1040,1550.2 Q1050,1553.5 1060,1556.1 Q1070,1558.1 1080,1560.5 Q1090,1564.2 1100,1568.9 Q1110,1573.7 1120,1577.2 Q1130,1578.5 1140,1577.7 Q1150,1576.0 1160,1575.0 Q1170,1575.8 1180,1578.4 Q1190,1581.7 1200,1584.5 Q1210,1586.2 1220,1587.0 Q1230,1588.0 1240,1590.1 Q1250,1593.4 1260,1596.9 Q1270,1599.4 1280,1599.8 Q1290,1598.2 1300,1595.9 Q1310,1594.3 1320,1594.9 Q1330,1597.5 1340,1601.4 Q1350,1605.3 1360,1608.4 Q1370,1611.1 1380,1614.1 Q1390,1618.4 1400,1623.9"/><path d="M -20,1661.8 Q-10,1659.2 0,1657.8 Q10,1658.1 20,1659.3 Q30,1660.3 40,1660.6 Q50,1660.5 60,1661.0 Q70,1663.2 80,1667.3 Q90,1672.3 100,1676.6 Q110,1678.8 120,1678.3 Q130,1675.8 140,1672.8 Q150,1670.2 160,1668.5 Q170,1667.0 180,1664.5 Q190,1660.6 200,1655.5 Q210,1650.5 220,1646.7 Q230,1644.7 240,1643.6 Q250,1642.2 260,1638.9 Q270,1633.3 280,1626.0 Q290,1618.5 300,1612.0 Q310,1607.0 320,1602.9 Q330,1598.8 340,1594.1 Q350,1589.2 360,1585.1 Q370,1583.3 380,1584.3 Q390,1587.3 400,1590.8 Q410,1593.2 420,1593.8 Q430,1592.9 440,1591.6 Q450,1591.0 460,1591.4 Q470,1592.2 480,1592.4 Q490,1591.1 500,1588.8 Q510,1586.6 520,1585.9 Q530,1587.3 540,1590.4 Q550,1593.9 560,1596.1 Q570,1596.4 580,1595.0 Q590,1593.1 600,1591.8 Q610,1591.7 620,1592.1 Q630,1592.1 640,1591.0 Q650,1589.0 660,1587.4 Q670,1587.6 680,1590.5 Q690,1595.7 700,1601.8 Q710,1607.2 720,1610.9 Q730,1613.0 740,1614.5 Q750,1616.3 760,1618.7 Q770,1621.2 780,1622.5 Q790,1621.8 800,1619.4 Q810,1616.3 820,1614.1 Q830,1613.9 840,1615.4 Q850,1617.7 860,1619.1 Q870,1618.8 880,1616.9 Q890,1614.4 900,1612.4 Q910,1611.3 920,1610.8 Q930,1609.6 940,1607.1 Q950,1603.3 960,1599.5 Q970,1597.2 980,1597.6 Q990,1600.7 1000,1605.6 Q1010,1610.6 1020,1614.7 Q1030,1617.9 1040,1620.9 Q1050,1624.6 1060,1629.3 Q1070,1634.4 1080,1638.6 Q1090,1640.8 1100,1641.0 Q1110,1640.2 1120,1639.9 Q1130,1641.3 1140,1644.7 Q1150,1649.1 1160,1653.2 Q1170,1655.9 1180,1657.2 Q1190,1658.0 1200,1659.1 Q1210,1661.2 1220,1663.6 Q1230,1665.1 1240,1664.8 Q1250,1662.5 1260,1659.1 Q1270,1656.3 1280,1655.4 Q1290,1657.0 1300,1660.0 Q1310,1663.4 1320,1665.9 Q1330,1667.4 1340,1668.6 Q1350,1670.5 1360,1673.3 Q1370,1676.6 1380,1678.8 Q1390,1678.7 1400,1675.9"/><path d="M -20,1708.6 Q-10,1708.7 0,1708.2 Q10,1707.1 20,1706.1 Q30,1706.2 40,1708.0 Q50,1710.8 60,1713.1 Q70,1713.5 80,1711.3 Q90,1707.0 100,1701.9 Q110,1697.4 120,1694.3 Q130,1692.0 140,1689.4 Q150,1685.8 160,1681.1 Q170,1676.1 180,1672.0 Q190,1669.5 200,1668.2 Q210,1666.8 220,1663.8 Q230,1658.6 240,1651.5 Q250,1644.0 260,1637.7 Q270,1633.2 280,1630.3 Q290,1628.1 300,1625.7 Q310,1623.0 320,1621.0 Q330,1620.9 340,1623.2 Q350,1627.6 360,1632.7 Q370,1636.7 380,1638.8 Q390,1639.0 400,1638.5 Q410,1638.4 420,1639.6 Q430,1641.6 440,1643.5 Q450,1644.3 460,1644.0 Q470,1643.3 480,1643.6 Q490,1645.8 500,1649.5 Q510,1653.6 520,1656.4 Q530,1657.0 540,1655.5 Q550,1652.9 560,1650.6 Q570,1649.5 580,1649.4 Q590,1649.4 600,1648.6 Q610,1647.1 620,1645.6 Q630,1645.5 640,1647.8 Q650,1652.5 660,1658.2 Q670,1663.3 680,1666.6 Q690,1667.8 700,1668.0 Q710,1668.2 720,1669.2 Q730,1670.7 740,1671.7 Q750,1671.3 760,1669.3 Q770,1666.6 780,1664.6 Q790,1664.5 800,1666.3 Q810,1669.1 820,1671.2 Q830,1671.6 840,1670.1 Q850,1667.5 860,1665.1 Q870,1663.7 880,1663.2 Q890,1662.8 900,1661.5 Q910,1659.1 920,1656.7 Q930,1655.5 940,1657.0 Q950,1661.3 960,1667.6 Q970,1674.1 980,1679.6 Q990,1683.7 1000,1686.9 Q1010,1690.4 1020,1694.7 Q1030,1699.5 1040,1703.9 Q1050,1706.7 1060,1707.5 Q1070,1707.1 1080,1706.9 Q1090,1708.2 1100,1711.5 Q1110,1716.0 1120,1720.3 Q1130,1723.0 1140,1723.7 Q1150,1723.1 1160,1722.3 Q1170,1722.2 1180,1722.4 Q1190,1722.2 1200,1720.4 Q1210,1716.7 1220,1711.8 Q1230,1707.3 1240,1704.7 Q1250,1704.6 1260,1706.4 Q1270,1708.7 1280,1710.1 Q1290,1710.3 1300,1709.6 Q1310,1709.0 1320,1709.2 Q1330,1710.0 1340,1710.2 Q1350,1708.6 1360,1704.5 Q1370,1698.7 1380,1692.5 Q1390,1687.4 1400,1684.2"/><path d="M -20,1739.1 Q-10,1737.6 0,1737.4 Q10,1738.4 20,1739.3 Q30,1738.7 40,1735.7 Q50,1730.6 60,1724.7 Q70,1719.6 80,1716.2 Q90,1714.2 100,1712.7 Q110,1710.5 120,1707.2 Q130,1703.4 140,1700.0 Q150,1698.0 160,1697.2 Q170,1696.5 180,1694.6 Q190,1690.6 200,1684.7 Q210,1678.2 220,1672.8 Q230,1669.5 240,1668.4 Q250,1668.5 260,1668.7 Q270,1668.7 280,1668.8 Q290,1670.3 300,1673.7 Q310,1679.1 320,1685.3 Q330,1690.5 340,1693.6 Q350,1694.6 360,1694.4 Q370,1694.6 380,1695.9 Q390,1698.6 400,1701.5 Q410,1703.7 420,1704.7 Q430,1704.9 440,1705.5 Q450,1707.4 460,1710.8 Q470,1714.5 480,1717.0 Q490,1717.1 500,1714.8 Q510,1711.1 520,1707.4 Q530,1705.0 540,1704.0 Q550,1703.7 560,1703.1 Q570,1701.9 580,1700.5 Q590,1700.1 600,1701.8 Q610,1705.8 620,1711.0 Q630,1715.7 640,1718.7 Q650,1719.5 660,1718.8 Q670,1718.0 680,1718.1 Q690,1719.2 700,1720.5 Q710,1721.0 720,1720.2 Q730,1718.7 740,1717.5 Q750,1718.0 760,1720.5 Q770,1724.1 780,1727.2 Q790,1728.6 800,1727.8 Q810,1725.5 820,1723.0 Q830,1721.6 840,1721.4 Q850,1721.8 860,1721.9 Q870,1721.2 880,1720.2 Q890,1720.2 900,1722.5 Q910,1727.5 920,1734.4 Q930,1741.7 940,1747.9 Q950,1752.1 960,1754.9 Q970,1757.4 980,1760.4 Q990,1764.2 1000,1767.9 Q1010,1770.4 1020,1771.1 Q1030,1770.5 1040,1769.7 Q1050,1770.1 1060,1772.3 Q1070,1775.8 1080,1779.1 Q1090,1780.8 1100,1780.1 Q1110,1777.5 1120,1774.1 Q1130,1771.1 1140,1768.7 Q1150,1766.2 1160,1762.7 Q1170,1757.6 1180,1751.5 Q1190,1745.5 1200,1741.3 Q1210,1739.6 1220,1740.2 Q1230,1741.6 1240,1742.3 Q1250,1741.4 1260,1739.4 Q1270,1737.0 1280,1735.2 Q1290,1734.2 1300,1733.3 Q1310,1731.2 1320,1727.1 Q1330,1721.5 1340,1715.4 Q1350,1710.6 1360,1707.8 Q1370,1706.9 1380,1706.7 Q1390,1705.8 1400,1703.3"/><path d="M -20,1762.3 Q-10,1761.7 0,1759.1 Q10,1754.5 20,1749.3 Q30,1744.8 40,1742.2 Q50,1741.7 60,1742.1 Q70,1742.3 80,1741.2 Q90,1739.2 100,1737.2 Q110,1736.1 120,1736.1 Q130,1736.5 140,1736.0 Q150,1733.5 160,1729.1 Q170,1724.0 180,1719.8 Q190,1717.8 200,1718.3 Q210,1720.4 220,1723.0 Q230,1725.1 240,1726.9 Q250,1729.3 260,1733.2 Q270,1738.7 280,1745.0 Q290,1750.5 300,1753.9 Q310,1755.0 320,1754.7 Q330,1754.4 340,1755.3 Q350,1757.9 360,1761.2 Q370,1764.0 380,1765.6 Q390,1766.1 400,1766.4 Q410,1767.4 420,1769.6 Q430,1772.2 440,1773.8 Q450,1773.2 460,1770.0 Q470,1765.1 480,1760.2 Q490,1756.6 500,1754.9 Q510,1754.5 520,1754.4 Q530,1753.8 540,1752.9 Q550,1752.6 560,1754.0 Q570,1757.5 580,1762.4 Q590,1767.1 600,1770.2 Q610,1771.1 620,1770.3 Q630,1769.2 640,1769.1 Q650,1770.4 660,1772.7 Q670,1774.7 680,1775.7 Q690,1775.8 700,1776.0 Q710,1777.4 720,1780.5 Q730,1784.7 740,1788.7 Q750,1791.0 760,1790.8 Q770,1788.8 780,1786.2 Q790,1784.5 800,1784.4 Q810,1785.3 820,1786.4 Q830,1786.9 840,1786.9 Q850,1787.5 860,1789.8 Q870,1794.5 880,1801.0 Q890,1808.0 900,1813.6 Q910,1817.1 920,1818.6 Q930,1819.2 940,1820.2 Q950,1822.1 960,1824.3 Q970,1825.8 980,1825.8 Q990,1824.4 1000,1822.4 Q1010,1821.3 1020,1821.8 Q1030,1823.6 1040,1825.3 Q1050,1825.4 1060,1823.0 Q1070,1818.2 1080,1812.3 Q1090,1806.5 1100,1801.6 Q1110,1797.2 1120,1792.5 Q1130,1786.7 1140,1779.9 Q1150,1773.3 1160,1768.3 Q1170,1765.8 1180,1765.8 Q1190,1766.9 1200,1767.6 Q1210,1766.7 1220,1764.2 Q1230,1761.1 1240,1758.5 Q1250,1756.9 1260,1755.9 Q1270,1754.5 1280,1751.7 Q1290,1747.5 1300,1742.9 Q1310,1739.4 1320,1738.0 Q1330,1738.7 1340,1740.4 Q1350,1741.6 1360,1741.0 Q1370,1738.7 1380,1735.6 Q1390,1732.9 1400,1731.2"/><path d="M -20,1782.6 Q-10,1779.7 0,1778.8 Q10,1780.1 20,1782.9 Q30,1785.5 40,1787.0 Q50,1787.0 60,1786.3 Q70,1786.0 80,1786.5 Q90,1787.7 100,1788.2 Q110,1787.0 120,1784.0 Q130,1780.0 140,1776.7 Q150,1775.5 160,1776.9 Q170,1780.3 180,1784.3 Q190,1787.8 200,1790.5 Q210,1793.0 220,1796.4 Q230,1801.0 240,1806.3 Q250,1811.2 260,1814.2 Q270,1814.9 280,1814.0 Q290,1812.9 300,1813.1 Q310,1815.0 320,1818.2 Q330,1821.3 340,1823.2 Q350,1823.7 360,1823.4 Q370,1823.3 380,1824.2 Q390,1825.5 400,1826.1 Q410,1824.9 420,1821.2 Q430,1815.8 440,1810.2 Q450,1806.0 460,1804.2 Q470,1804.2 480,1805.0 Q490,1805.6 500,1805.8 Q510,1806.2 520,1807.8 Q530,1811.2 540,1816.1 Q550,1821.1 560,1824.7 Q570,1826.2 580,1825.8 Q590,1825.0 600,1825.2 Q610,1827.2 620,1830.6 Q630,1834.2 640,1837.1 Q650,1838.9 660,1840.3 Q670,1842.3 680,1845.6 Q690,1849.9 700,1854.1 Q710,1856.5 720,1856.5 Q730,1854.2 740,1851.1 Q750,1848.6 760,1847.8 Q770,1848.5 780,1849.8 Q790,1850.7 800,1851.0 Q810,1851.2 820,1852.6 Q830,1856.0 840,1861.0 Q850,1866.4 860,1870.6 Q870,1872.5 880,1872.0 Q890,1870.3 900,1868.8 Q910,1868.3 920,1868.6 Q930,1868.9 940,1868.0 Q950,1865.7 960,1862.7 Q970,1860.0 980,1858.7 Q990,1858.6 1000,1858.8 Q1010,1857.5 1020,1853.6 Q1030,1847.3 1040,1839.5 Q1050,1831.8 1060,1825.3 Q1070,1819.9 1080,1814.9 Q1090,1809.5 1100,1803.3 Q1110,1797.3 1120,1792.6 Q1130,1790.4 1140,1790.7 Q1150,1792.4 1160,1793.9 Q1170,1793.9 1180,1792.1 Q1190,1789.4 1200,1786.9 Q1210,1785.7 1220,1785.6 Q1230,1785.7 1240,1785.1 Q1250,1783.3 1260,1781.0 Q1270,1779.5 1280,1779.8 Q1290,1782.3 1300,1785.9 Q1310,1789.0 1320,1790.3 Q1330,1789.5 1340,1787.3 Q1350,1785.0 1360,1783.7 Q1370,1783.2 1380,1783.1 Q1390,1782.2 1400,1780.2"/><path d="M -20,1835.8 Q-10,1840.5 0,1843.9 Q10,1845.3 20,1845.4 Q30,1845.3 40,1845.8 Q50,1846.8 60,1847.6 Q70,1847.1 80,1844.8 Q90,1841.4 100,1838.4 Q110,1837.4 120,1839.0 Q130,1842.7 140,1847.3 Q150,1851.2 160,1853.9 Q170,1855.8 180,1857.8 Q190,1860.8 200,1864.7 Q210,1868.4 220,1870.6 Q230,1870.8 240,1869.3 Q250,1867.6 260,1867.0 Q270,1868.4 280,1871.4 Q290,1874.8 300,1877.1 Q310,1877.7 320,1877.1 Q330,1876.2 340,1875.9 Q350,1876.2 360,1876.3 Q370,1874.9 380,1871.4 Q390,1866.2 400,1860.8 Q410,1856.9 420,1855.5 Q430,1856.5 440,1858.7 Q450,1861.0 460,1862.7 Q470,1864.0 480,1866.1 Q490,1869.6 500,1874.4 Q510,1879.7 520,1883.9 Q530,1886.1 540,1886.5 Q550,1886.1 560,1886.7 Q570,1889.1 580,1893.3 Q590,1898.2 600,1902.4 Q610,1905.4 620,1907.3 Q630,1909.1 640,1911.7 Q650,1915.1 660,1918.4 Q670,1920.2 680,1919.4 Q690,1916.2 700,1911.8 Q710,1907.9 720,1905.7 Q730,1905.4 740,1906.1 Q750,1906.6 760,1906.3 Q770,1905.6 780,1905.4 Q790,1906.6 800,1909.3 Q810,1912.5 820,1914.7 Q830,1914.7 840,1912.2 Q850,1908.3 860,1904.4 Q870,1901.8 880,1900.5 Q890,1899.8 900,1898.4 Q910,1895.8 920,1892.3 Q930,1888.7 940,1886.1 Q950,1884.8 960,1883.9 Q970,1881.9 980,1877.6 Q990,1870.8 1000,1862.4 Q1010,1854.1 1020,1847.1 Q1030,1841.9 1040,1837.9 Q1050,1834.0 1060,1829.7 Q1070,1825.4 1080,1822.1 Q1090,1821.0 1100,1822.3 Q1110,1825.2 1120,1828.1 Q1130,1829.7 1140,1829.3 Q1150,1827.6 1160,1826.0 Q1170,1825.7 1180,1826.9 Q1190,1828.9 1200,1830.7 Q1210,1831.5 1220,1831.6 Q1230,1832.0 1240,1833.9 Q1250,1837.6 1260,1842.4 Q1270,1846.8 1280,1849.3 Q1290,1849.3 1300,1847.5 Q1310,1845.0 1320,1843.4 Q1330,1842.9 1340,1843.1 Q1350,1843.1 1360,1842.1 Q1370,1840.7 1380,1839.8 Q1390,1840.9 1400,1844.4"/><path d="M -20,1909.7 Q-10,1908.9 0,1908.3 Q10,1908.5 20,1908.7 Q30,1908.1 40,1906.0 Q50,1902.8 60,1899.7 Q70,1898.3 80,1899.4 Q90,1902.8 100,1907.1 Q110,1910.9 120,1913.1 Q130,1914.1 140,1914.7 Q150,1915.9 160,1918.1 Q170,1920.6 180,1922.3 Q190,1922.3 200,1920.8 Q210,1918.9 220,1918.1 Q230,1919.4 240,1922.6 Q250,1926.5 260,1929.5 Q270,1930.8 280,1930.3 Q290,1929.1 300,1928.2 Q310,1927.9 320,1927.9 Q330,1926.9 340,1924.3 Q350,1920.1 360,1915.6 Q370,1912.5 380,1911.9 Q390,1914.0 400,1917.7 Q410,1921.6 420,1924.7 Q430,1927.0 440,1929.3 Q450,1932.5 460,1937.0 Q470,1942.1 480,1946.5 Q490,1949.1 500,1949.8 Q510,1949.6 520,1950.1 Q530,1952.4 540,1956.6 Q550,1961.8 560,1966.5 Q570,1969.6 580,1971.2 Q590,1971.9 600,1972.8 Q610,1974.2 620,1975.6 Q630,1975.7 640,1973.5 Q650,1968.9 660,1962.8 Q670,1957.1 680,1953.1 Q690,1951.2 700,1950.7 Q710,1950.4 720,1949.4 Q730,1947.4 740,1945.5 Q750,1944.4 760,1944.7 Q770,1945.7 780,1946.0 Q790,1944.4 800,1940.6 Q810,1935.3 820,1930.0 Q830,1926.1 840,1924.0 Q850,1923.2 860,1922.3 Q870,1920.4 880,1917.3 Q890,1913.8 900,1911.0 Q910,1909.4 920,1908.3 Q930,1906.5 940,1902.8 Q950,1896.7 960,1889.0 Q970,1881.2 980,1875.0 Q990,1871.1 1000,1868.9 Q1010,1867.4 1020,1865.8 Q1030,1863.9 1040,1862.6 Q1050,1863.0 1060,1865.5 Q1070,1869.7 1080,1874.1 Q1090,1877.2 1100,1878.3 Q1110,1877.8 1120,1877.1 Q1130,1877.7 1140,1880.0 Q1150,1883.6 1160,1887.4 Q1170,1890.3 1180,1892.3 Q1190,1894.0 1200,1896.6 Q1210,1900.6 1220,1905.6 Q1230,1910.2 1240,1912.9 Q1250,1912.9 1260,1910.6 Q1270,1907.4 1280,1904.8 Q1290,1903.6 1300,1903.5 Q1310,1903.6 1320,1903.1 Q1330,1902.0 1340,1901.1 Q1350,1901.5 1360,1904.2 Q1370,1908.6 1380,1913.6 Q1390,1917.5 1400,1919.3"/><path d="M -20,1966.8 Q-10,1965.7 0,1963.6 Q10,1960.4 20,1957.1 Q30,1955.2 40,1955.6 Q50,1958.3 60,1962.3 Q70,1965.8 80,1967.6 Q90,1967.8 100,1967.3 Q110,1967.1 120,1968.1 Q130,1969.9 140,1971.6 Q150,1972.1 160,1971.3 Q170,1970.1 180,1969.8 Q190,1971.5 200,1975.3 Q210,1980.1 220,1984.1 Q230,1986.3 240,1986.4 Q250,1985.3 260,1984.1 Q270,1983.6 280,1983.6 Q290,1983.3 300,1981.8 Q310,1978.9 320,1975.6 Q330,1973.3 340,1973.5 Q350,1976.4 360,1981.1 Q370,1986.0 380,1989.9 Q390,1992.5 400,1994.4 Q410,1996.7 420,2000.1 Q430,2004.1 440,2007.9 Q450,2010.2 460,2010.7 Q470,2010.1 480,2009.8 Q490,2011.2 500,2014.6 Q510,2019.1 520,2023.2 Q530,2025.7 540,2026.1 Q550,2024.9 560,2023.4 Q570,2022.1 580,2021.0 Q590,2019.0 600,2015.1 Q610,2008.9 620,2001.4 Q630,1993.9 640,1988.3 Q650,1984.9 660,1983.5 Q670,1982.5 680,1980.9 Q690,1978.2 700,1974.9 Q710,1972.2 720,1970.6 Q730,1970.0 740,1969.3 Q750,1967.1 760,1963.1 Q770,1957.6 780,1952.2 Q790,1948.3 800,1946.7 Q810,1946.9 820,1947.5 Q830,1947.2 840,1945.7 Q850,1943.3 860,1941.2 Q870,1939.9 880,1939.4 Q890,1938.6 900,1936.3 Q910,1931.8 920,1925.6 Q930,1919.4 940,1914.6 Q950,1912.4 960,1912.4 Q970,1913.5 980,1914.6 Q990,1915.2 1000,1915.8 Q1010,1917.4 1020,1920.8 Q1030,1925.6 1040,1930.8 Q1050,1934.9 1060,1937.0 Q1070,1937.4 1080,1937.2 Q1090,1938.1 1100,1940.9 Q1110,1945.3 1120,1950.2 Q1130,1954.5 1140,1957.5 Q1150,1959.7 1160,1962.1 Q1170,1965.4 1180,1969.4 Q1190,1973.2 1200,1975.3 Q1210,1974.6 1220,1971.5 Q1230,1967.1 1240,1963.2 Q1250,1960.9 1260,1960.2 Q1270,1960.2 1280,1960.0 Q1290,1959.1 1300,1958.0 Q1310,1957.8 1320,1959.5 Q1330,1962.8 1340,1966.9 Q1350,1970.2 1360,1971.4 Q1370,1970.6 1380,1968.8 Q1390,1967.4 1400,1967.6"/><path d="M -20,2010.5 Q-10,2008.4 0,2008.4 Q10,2010.8 20,2014.4 Q30,2017.9 40,2019.8 Q50,2019.8 60,2018.7 Q70,2017.8 80,2018.2 Q90,2019.9 100,2022.1 Q110,2023.8 120,2024.5 Q130,2024.6 140,2025.4 Q150,2027.9 160,2032.4 Q170,2038.0 180,2043.0 Q190,2046.1 200,2046.8 Q210,2045.8 220,2044.3 Q230,2043.4 240,2043.4 Q250,2043.5 260,2042.8 Q270,2041.0 280,2038.5 Q290,2036.7 300,2037.0 Q310,2039.9 320,2044.5 Q330,2049.5 340,2053.3 Q350,2055.3 360,2055.9 Q370,2056.5 380,2057.8 Q390,2060.0 400,2062.3 Q410,2063.7 420,2063.4 Q430,2061.9 440,2060.5 Q450,2060.4 460,2062.3 Q470,2065.4 480,2068.4 Q490,2069.7 500,2068.5 Q510,2065.3 520,2061.2 Q530,2057.3 540,2053.7 Q550,2049.8 560,2044.5 Q570,2037.5 580,2029.1 Q590,2020.9 600,2014.3 Q610,2010.3 620,2008.5 Q630,2007.6 640,2006.2 Q650,2003.5 660,2000.0 Q670,1996.5 680,1994.1 Q690,1992.9 700,1992.1 Q710,1990.6 720,1987.6 Q730,1983.4 740,1979.3 Q750,1976.6 760,1976.4 Q770,1978.4 780,1981.2 Q790,1983.3 800,1984.0 Q810,1983.3 820,1982.3 Q830,1981.8 840,1982.2 Q850,1982.5 860,1981.8 Q870,1979.1 880,1974.9 Q890,1970.3 900,1967.1 Q910,1966.4 920,1968.1 Q930,1971.3 940,1974.6 Q950,1977.0 960,1978.9 Q970,1980.9 980,1984.2 Q990,1988.8 1000,1993.9 Q1010,1998.1 1020,2000.5 Q1030,2001.0 1040,2000.8 Q1050,2001.3 1060,2003.8 Q1070,2008.2 1080,2013.5 Q1090,2018.3 1100,2021.6 Q1110,2023.6 1120,2025.0 Q1130,2026.9 1140,2029.4 Q1150,2031.7 1160,2032.7 Q1170,2031.2 1180,2027.2 Q1190,2021.8 1200,2016.9 Q1210,2013.6 1220,2012.4 Q1230,2012.6 1240,2012.9 Q1250,2012.5 1260,2011.6 Q1270,2011.1 1280,2012.0 Q1290,2014.6 1300,2018.1 Q1310,2021.1 1320,2022.3 Q1330,2021.6 1340,2019.7 Q1350,2018.3 1360,2018.5 Q1370,2020.8 1380,2024.3 Q1390,2027.7 1400,2030.3"/><path d="M -20,2067.0 Q-10,2070.7 0,2073.0 Q10,2073.3 20,2072.3 Q30,2071.3 40,2071.6 Q50,2073.7 60,2076.8 Q70,2080.0 80,2082.4 Q90,2084.0 100,2085.9 Q110,2089.0 120,2093.9 Q130,2099.9 140,2105.4 Q150,2108.9 160,2109.7 Q170,2108.3 180,2106.1 Q190,2104.3 200,2103.6 Q210,2103.5 220,2103.0 Q230,2101.6 240,2099.4 Q250,2097.4 260,2096.9 Q270,2098.7 280,2102.3 Q290,2106.2 300,2108.9 Q310,2109.4 320,2108.2 Q330,2106.4 340,2105.1 Q350,2105.0 360,2105.5 Q370,2105.6 380,2104.4 Q390,2102.0 400,2099.4 Q410,2097.9 420,2098.2 Q430,2099.9 440,2101.6 Q450,2101.8 460,2099.4 Q470,2094.6 480,2088.6 Q490,2082.7 500,2077.4 Q510,2072.4 520,2066.9 Q530,2060.0 540,2052.1 Q550,2044.3 560,2038.0 Q570,2034.3 580,2033.0 Q590,2033.0 600,2032.8 Q610,2031.2 620,2028.4 Q630,2025.3 640,2023.0 Q650,2022.2 660,2022.3 Q670,2022.4 680,2021.5 Q690,2019.5 700,2017.5 Q710,2016.8 720,2018.5 Q730,2022.5 740,2027.5 Q750,2032.1 760,2034.9 Q770,2035.9 780,2035.9 Q790,2036.0 800,2036.9 Q810,2038.0 820,2038.5 Q830,2037.3 840,2034.6 Q850,2031.4 860,2029.2 Q870,2029.3 880,2032.0 Q890,2036.3 900,2040.6 Q910,2043.9 920,2046.0 Q930,2047.6 940,2049.8 Q950,2053.2 960,2057.2 Q970,2060.7 980,2062.7 Q990,2063.0 1000,2062.3 Q1010,2062.2 1020,2063.9 Q1030,2067.8 1040,2072.9 Q1050,2077.6 1060,2080.9 Q1070,2082.4 1080,2082.8 Q1090,2083.1 1100,2083.9 Q1110,2084.8 1120,2084.7 Q1130,2082.7 1140,2078.3 Q1150,2072.6 1160,2067.3 Q1170,2063.7 1180,2062.6 Q1190,2063.3 1200,2064.5 Q1210,2065.1 1220,2064.9 Q1230,2064.6 1240,2065.2 Q1250,2067.4 1260,2070.6 Q1270,2073.7 1280,2075.5 Q1290,2075.4 1300,2074.2 Q1310,2073.2 1320,2074.0 Q1330,2077.0 1340,2081.7 Q1350,2086.8 1360,2091.0 Q1370,2094.0 1380,2096.3 Q1390,2099.0 1400,2102.5"/><path d="M -20,2129.9 Q-10,2129.0 0,2129.3 Q10,2131.7 20,2135.6 Q30,2140.1 40,2143.8 Q50,2146.7 60,2149.2 Q70,2152.3 80,2156.8 Q90,2162.1 100,2167.1 Q110,2170.1 120,2170.3 Q130,2168.0 140,2164.4 Q150,2161.0 160,2158.9 Q170,2157.8 180,2156.9 Q190,2155.2 200,2152.6 Q210,2149.7 220,2147.9 Q230,2147.9 240,2149.5 Q250,2151.6 260,2152.6 Q270,2151.4 280,2148.2 Q290,2144.0 300,2140.3 Q310,2137.9 320,2136.8 Q330,2135.9 340,2134.3 Q350,2131.5 360,2128.4 Q370,2126.0 380,2125.3 Q390,2126.0 400,2127.1 Q410,2126.8 420,2124.0 Q430,2118.7 440,2111.9 Q450,2105.1 460,2099.3 Q470,2094.5 480,2089.8 Q490,2084.5 500,2078.3 Q510,2072.1 520,2067.2 Q530,2064.8 540,2064.8 Q550,2066.4 560,2067.9 Q570,2068.1 580,2066.7 Q590,2064.7 600,2063.2 Q610,2063.3 620,2064.7 Q630,2066.7 640,2068.2 Q650,2068.8 660,2069.1 Q670,2070.4 680,2073.8 Q690,2079.4 700,2086.1 Q710,2092.4 720,2096.7 Q730,2098.7 740,2099.1 Q750,2099.1 760,2099.7 Q770,2100.8 780,2101.7 Q790,2101.3 800,2099.5 Q810,2097.0 820,2095.1 Q830,2095.2 840,2097.8 Q850,2102.1 860,2106.5 Q870,2109.7 880,2111.2 Q890,2111.6 900,2112.2 Q910,2113.7 920,2116.1 Q930,2118.6 940,2120.0 Q950,2119.9 960,2118.8 Q970,2118.1 980,2119.2 Q990,2122.5 1000,2127.3 Q1010,2132.0 1020,2135.3 Q1030,2136.5 1040,2136.1 Q1050,2135.2 1060,2134.7 Q1070,2134.6 1080,2134.0 Q1090,2132.0 1100,2128.1 Q1110,2123.0 1120,2118.0 Q1130,2114.9 1140,2114.3 Q1150,2115.9 1160,2118.3 Q1170,2120.3 1180,2121.1 Q1190,2121.3 1200,2121.9 Q1210,2123.7 1220,2126.8 Q1230,2130.1 1240,2132.5 Q1250,2133.2 1260,2132.8 Q1270,2132.4 1280,2133.6 Q1290,2137.2 1300,2142.7 Q1310,2148.8 1320,2154.0 Q1330,2157.7 1340,2160.0 Q1350,2161.9 1360,2164.2 Q1370,2166.9 1380,2169.1 Q1390,2169.5 1400,2167.5"/><path d="M -20,2195.2 Q-10,2200.2 0,2204.6 Q10,2207.9 20,2210.2 Q30,2212.5 40,2215.6 Q50,2219.3 60,2222.7 Q70,2224.3 80,2223.2 Q90,2219.3 100,2213.9 Q110,2208.6 120,2204.6 Q130,2202.1 140,2200.2 Q150,2197.9 160,2194.6 Q170,2190.7 180,2187.3 Q190,2185.3 200,2184.8 Q210,2185.0 220,2184.4 Q230,2181.7 240,2176.9 Q250,2171.1 260,2165.7 Q270,2162.0 280,2160.1 Q290,2159.1 300,2158.0 Q310,2155.9 320,2153.3 Q330,2151.1 340,2150.3 Q350,2150.9 360,2152.1 Q370,2152.2 380,2150.1 Q390,2145.5 400,2139.1 Q410,2132.7 420,2127.5 Q430,2123.8 440,2121.0 Q450,2118.1 460,2114.6 Q470,2110.9 480,2108.1 Q490,2107.4 500,2109.0 Q510,2112.3 520,2115.6 Q530,2117.5 540,2117.7 Q550,2116.8 560,2116.2 Q570,2117.0 580,2119.6 Q590,2123.2 600,2126.8 Q610,2129.5 620,2131.8 Q630,2134.5 640,2138.8 Q650,2145.0 660,2152.3 Q670,2159.1 680,2163.9 Q690,2166.0 700,2165.9 Q710,2165.0 720,2164.5 Q730,2164.8 740,2165.3 Q750,2165.1 760,2163.6 Q770,2161.1 780,2159.0 Q790,2158.5 800,2160.3 Q810,2163.8 820,2167.6 Q830,2170.1 840,2170.7 Q850,2169.8 860,2168.6 Q870,2168.3 880,2169.1 Q890,2170.7 900,2171.8 Q910,2171.7 920,2170.8 Q930,2170.2 940,2171.0 Q950,2174.1 960,2178.8 Q970,2183.8 980,2187.5 Q990,2188.8 1000,2188.2 Q1010,2186.7 1020,2185.4 Q1030,2184.8 1040,2184.3 Q1050,2183.0 1060,2180.2 Q1070,2176.2 1080,2172.3 Q1090,2170.0 1100,2170.2 Q1110,2172.7 1120,2176.3 Q1130,2179.5 1140,2181.3 Q1150,2181.9 1160,2182.2 Q1170,2183.5 1180,2185.9 Q1190,2189.0 1200,2191.7 Q1210,2193.0 1220,2193.0 Q1230,2192.9 1240,2194.1 Q1250,2197.5 1260,2202.9 Q1270,2209.0 1280,2214.3 Q1290,2217.7 1300,2219.1 Q1310,2219.4 1320,2219.7 Q1330,2220.2 1340,2220.5 Q1350,2219.4 1360,2216.1 Q1370,2210.7 1380,2204.4 Q1390,2198.8 1400,2195.2"/><path d="M -20,2263.5 Q-10,2264.2 0,2265.1 Q10,2266.4 20,2267.6 Q30,2267.3 40,2264.5 Q50,2258.9 60,2251.8 Q70,2244.6 80,2238.9 Q90,2235.1 100,2232.4 Q110,2229.7 120,2226.0 Q130,2221.5 140,2216.9 Q150,2213.4 160,2211.3 Q170,2210.1 180,2208.5 Q190,2205.3 200,2200.1 Q210,2193.9 220,2188.1 Q230,2184.2 240,2182.7 Q250,2182.7 260,2183.1 Q270,2182.9 280,2182.0 Q290,2181.0 300,2180.9 Q310,2182.2 320,2184.2 Q330,2185.6 340,2184.9 Q350,2181.8 360,2176.8 Q370,2171.7 380,2167.8 Q390,2165.8 400,2165.3 Q410,2165.1 420,2164.5 Q430,2163.4 440,2162.7 Q450,2163.4 460,2166.2 Q470,2170.5 480,2175.0 Q490,2178.2 500,2179.4 Q510,2179.2 520,2178.9 Q530,2180.0 540,2183.0 Q550,2187.5 560,2192.3 Q570,2196.4 580,2199.8 Q590,2203.0 600,2207.3 Q610,2213.0 620,2219.7 Q630,2226.0 640,2230.2 Q650,2231.5 660,2230.4 Q670,2228.0 680,2226.0 Q690,2224.9 700,2224.6 Q710,2224.1 720,2222.6 Q730,2220.2 740,2217.7 Q750,2216.4 760,2217.2 Q770,2219.7 780,2222.6 Q790,2224.5 800,2224.4 Q810,2222.5 820,2220.0 Q830,2218.3 840,2218.2 Q850,2219.3 860,2220.7 Q870,2221.5 880,2221.5 Q890,2221.5 900,2222.7 Q910,2226.0 920,2231.1 Q930,2236.6 940,2240.8 Q950,2242.8 960,2242.4 Q970,2240.7 980,2239.0 Q990,2238.2 1000,2238.1 Q1010,2237.7 1020,2236.2 Q1030,2233.7 1040,2230.9 Q1050,2229.4 1060,2230.1 Q1070,2233.1 1080,2237.3 Q1090,2241.0 1100,2243.0 Q1110,2243.4 1120,2243.0 Q1130,2243.0 1140,2244.3 Q1150,2246.5 1160,2248.7 Q1170,2249.9 1180,2249.9 Q1190,2249.5 1200,2249.9 Q1210,2252.4 1220,2256.8 Q1230,2262.0 1240,2266.5 Q1250,2268.8 1260,2268.6 Q1270,2266.8 1280,2264.4 Q1290,2262.4 1300,2260.4 Q1310,2257.6 1320,2253.0 Q1330,2246.6 1340,2239.2 Q1350,2232.4 1360,2227.5 Q1370,2224.8 1380,2223.6 Q1390,2222.3 1400,2219.9"/><path d="M -20,2300.6 Q-10,2298.5 0,2294.3 Q10,2287.8 20,2279.6 Q30,2271.4 40,2264.7 Q50,2260.2 60,2257.4 Q70,2254.9 80,2251.7 Q90,2247.4 100,2242.6 Q110,2238.4 120,2235.6 Q130,2234.0 140,2232.4 Q150,2229.7 160,2225.5 Q170,2220.2 180,2215.4 Q190,2212.6 200,2212.5 Q210,2214.5 220,2217.3 Q230,2219.7 240,2221.0 Q250,2221.9 260,2223.2 Q270,2225.5 280,2228.6 Q290,2231.3 300,2232.3 Q310,2231.0 320,2227.7 Q330,2224.1 340,2221.6 Q350,2221.2 360,2222.6 Q370,2224.7 380,2226.5 Q390,2227.4 400,2228.1 Q410,2229.5 420,2232.5 Q430,2236.9 440,2241.5 Q450,2244.9 460,2246.4 Q470,2246.1 480,2245.5 Q490,2246.1 500,2248.7 Q510,2253.2 520,2258.3 Q530,2263.0 540,2266.7 Q550,2269.7 560,2273.1 Q570,2277.5 580,2282.8 Q590,2287.7 600,2290.8 Q610,2291.1 620,2288.7 Q630,2284.9 640,2281.3 Q650,2279.0 660,2277.9 Q670,2277.3 680,2276.1 Q690,2274.0 700,2271.5 Q710,2269.7 720,2269.7 Q730,2271.3 740,2273.7 Q750,2275.2 760,2274.9 Q770,2272.6 780,2269.6 Q790,2267.4 800,2266.9 Q810,2268.3 820,2270.6 Q830,2272.8 840,2274.3 Q850,2275.5 860,2277.5 Q870,2281.3 880,2286.6 Q890,2292.6 900,2297.4 Q910,2299.9 920,2299.8 Q930,2298.0 940,2296.0 Q950,2295.0 960,2294.9 Q970,2295.2 980,2294.8 Q990,2293.3 1000,2291.4 Q1010,2290.1 1020,2290.6 Q1030,2293.2 1040,2296.8 Q1050,2300.1 1060,2301.6 Q1070,2301.0 1080,2299.1 Q1090,2297.3 1100,2296.6 Q1110,2297.2 1120,2298.3 Q1130,2298.9 1140,2298.4 Q1150,2297.3 1160,2296.6 Q1170,2297.6 1180,2300.4 Q1190,2304.1 1200,2307.2 Q1210,2308.1 1220,2306.2 Q1230,2302.3 1240,2297.5 Q1250,2293.1 1260,2289.1 Q1270,2285.1 1280,2279.9 Q1290,2273.2 1300,2265.6 Q1310,2258.4 1320,2252.9 Q1330,2249.8 1340,2248.4 Q1350,2247.3 1360,2245.1 Q1370,2241.2 1380,2236.2 Q1390,2231.2 1400,2227.4"/><path d="M -20,2302.9 Q-10,2294.9 0,2288.4 Q10,2284.3 20,2282.2 Q30,2281.0 40,2279.1 Q50,2276.0 60,2272.0 Q70,2268.3 80,2265.7 Q90,2264.4 100,2263.8 Q110,2262.7 120,2260.3 Q130,2257.1 140,2254.2 Q150,2253.2 160,2255.1 Q170,2259.3 180,2264.8 Q190,2269.8 200,2273.6 Q210,2276.3 220,2278.7 Q230,2281.8 240,2285.6 Q250,2289.3 260,2291.6 Q270,2291.7 280,2289.8 Q290,2287.3 300,2285.7 Q310,2286.2 320,2288.7 Q330,2292.2 340,2295.3 Q350,2297.3 360,2298.3 Q370,2299.4 380,2301.5 Q390,2304.8 400,2308.4 Q410,2311.2 420,2312.1 Q430,2311.3 440,2309.8 Q450,2309.4 460,2311.1 Q470,2314.9 480,2319.9 Q490,2324.7 500,2328.2 Q510,2330.7 520,2332.9 Q530,2335.7 540,2339.2 Q550,2342.6 560,2344.6 Q570,2344.0 580,2340.8 Q590,2336.1 600,2331.5 Q610,2328.5 620,2327.2 Q630,2326.9 640,2326.5 Q650,2325.2 660,2323.2 Q670,2321.5 680,2321.1 Q690,2322.3 700,2324.3 Q710,2325.9 720,2325.9 Q730,2324.0 740,2321.1 Q750,2318.9 760,2318.6 Q770,2320.6 780,2324.1 Q790,2327.9 800,2331.0 Q810,2333.5 820,2336.3 Q830,2340.2 840,2345.4 Q850,2351.3 860,2356.2 Q870,2358.8 880,2358.6 Q890,2356.4 900,2353.7 Q910,2351.9 920,2351.4 Q930,2351.7 940,2351.7 Q950,2350.7 960,2348.8 Q970,2347.0 980,2346.4 Q990,2347.6 1000,2349.8 Q1010,2351.7 1020,2351.8 Q1030,2349.6 1040,2345.8 Q1050,2341.8 1060,2338.8 Q1070,2337.5 1080,2337.3 Q1090,2337.1 1100,2336.1 Q1110,2334.3 1120,2332.6 Q1130,2332.1 1140,2333.3 Q1150,2335.5 1160,2337.3 Q1170,2337.1 1180,2334.1 Q1190,2328.8 1200,2322.5 Q1210,2316.6 1220,2311.6 Q1230,2307.2 1240,2302.5 Q1250,2296.7 1260,2290.1 Q1270,2283.7 1280,2278.8 Q1290,2276.1 1300,2275.4 Q1310,2275.3 1320,2274.3 Q1330,2271.4 1340,2267.2 Q1350,2262.8 1360,2259.6 Q1370,2258.1 1380,2257.9 Q1390,2258.1 1400,2257.8"/><path d="M -20,2314.6 Q-10,2315.3 0,2315.5 Q10,2314.3 20,2311.9 Q30,2309.1 40,2307.3 Q50,2307.0 60,2307.7 Q70,2308.5 80,2308.5 Q90,2307.6 100,2307.0 Q110,2308.0 120,2311.6 Q130,2317.8 140,2325.2 Q150,2332.4 160,2337.9 Q170,2341.8 180,2344.7 Q190,2347.8 200,2351.4 Q210,2355.1 220,2357.8 Q230,2358.7 240,2357.5 Q250,2355.4 260,2354.0 Q270,2354.5 280,2357.0 Q290,2360.8 300,2364.2 Q310,2366.2 320,2366.8 Q330,2366.7 340,2367.0 Q350,2368.4 360,2370.4 Q370,2371.9 380,2371.9 Q390,2370.4 400,2368.1 Q410,2366.7 420,2367.4 Q430,2370.5 440,2375.2 Q450,2379.9 460,2383.4 Q470,2385.4 480,2386.7 Q490,2388.1 500,2390.1 Q510,2392.3 520,2393.6 Q530,2392.7 540,2389.5 Q550,2384.7 560,2380.1 Q570,2377.0 580,2376.1 Q590,2376.7 600,2377.5 Q610,2377.5 620,2376.5 Q630,2375.2 640,2374.7 Q650,2375.5 660,2377.5 Q670,2379.3 680,2379.7 Q690,2378.4 700,2376.0 Q710,2374.0 720,2374.0 Q730,2376.5 740,2380.9 Q750,2385.9 760,2390.2 Q770,2393.6 780,2396.5 Q790,2399.9 800,2404.3 Q810,2409.1 820,2413.3 Q830,2415.2 840,2414.3 Q850,2411.2 860,2407.3 Q870,2404.2 880,2402.6 Q890,2402.2 900,2401.9 Q910,2400.6 920,2398.2 Q930,2395.3 940,2393.0 Q950,2392.1 960,2392.2 Q970,2392.2 980,2390.6 Q990,2386.8 1000,2381.2 Q1010,2375.2 1020,2370.3 Q1030,2367.4 1040,2366.2 Q1050,2365.6 1060,2364.5 Q1070,2362.7 1080,2360.6 Q1090,2359.3 1100,2359.5 Q1110,2360.9 1120,2362.0 Q1130,2361.5 1140,2358.4 Q1150,2352.9 1160,2346.3 Q1170,2340.2 1180,2335.4 Q1190,2331.9 1200,2328.7 Q1210,2325.0 1220,2320.5 Q1230,2316.0 1240,2312.6 Q1250,2311.2 1260,2311.8 Q1270,2313.2 1280,2313.8 Q1290,2312.7 1300,2310.0 Q1310,2306.8 1320,2304.6 Q1330,2304.3 1340,2306.0 Q1350,2308.5 1360,2310.9 Q1370,2312.9 1380,2315.0 Q1390,2318.2 1400,2323.6"/><path d="M -20,2364.9 Q-10,2363.3 0,2362.3 Q10,2362.7 20,2364.6 Q30,2367.0 40,2369.0 Q50,2370.3 60,2371.5 Q70,2373.9 80,2378.6 Q90,2385.7 100,2394.1 Q110,2402.1 120,2408.4 Q130,2412.4 140,2414.9 Q150,2417.0 160,2419.4 Q170,2422.3 180,2424.5 Q190,2425.3 200,2424.2 Q210,2422.0 220,2420.1 Q230,2419.9 240,2421.7 Q250,2424.8 260,2427.7 Q270,2429.2 280,2428.8 Q290,2427.1 300,2425.5 Q310,2424.8 320,2425.0 Q330,2425.3 340,2424.7 Q350,2422.7 360,2420.1 Q370,2418.2 380,2418.4 Q390,2421.2 400,2425.8 Q410,2430.7 420,2434.6 Q430,2436.6 440,2437.4 Q450,2438.0 460,2439.0 Q470,2440.5 480,2441.6 Q490,2441.1 500,2438.6 Q510,2434.6 520,2430.6 Q530,2428.1 540,2427.9 Q550,2429.5 560,2431.7 Q570,2433.0 580,2433.0 Q590,2432.1 600,2431.4 Q610,2431.8 620,2433.3 Q630,2434.9 640,2435.6 Q650,2434.6 660,2432.6 Q670,2430.7 680,2430.6 Q690,2433.1 700,2437.6 Q710,2443.0 720,2447.8 Q730,2451.2 740,2453.4 Q750,2455.5 760,2458.1 Q770,2461.1 780,2463.5 Q790,2464.1 800,2462.0 Q810,2457.7 820,2452.3 Q830,2447.6 840,2444.5 Q850,2443.0 860,2442.0 Q870,2440.2 880,2437.1 Q890,2433.0 900,2429.0 Q910,2425.9 920,2423.9 Q930,2422.1 940,2419.1 Q950,2414.2 960,2407.6 Q970,2400.5 980,2394.7 Q990,2391.1 1000,2389.7 Q1010,2389.7 1020,2389.5 Q1030,2388.6 1040,2387.1 Q1050,2386.1 1060,2386.2 Q1070,2387.4 1080,2388.9 Q1090,2389.1 1100,2386.9 Q1110,2382.5 1120,2376.8 Q1130,2371.6 1140,2368.1 Q1150,2366.4 1160,2365.6 Q1170,2364.7 1180,2363.0 Q1190,2360.9 1200,2359.4 Q1210,2359.6 1220,2361.4 Q1230,2364.2 1240,2366.5 Q1250,2367.1 1260,2365.8 Q1270,2363.8 1280,2362.6 Q1290,2363.4 1300,2366.4 Q1310,2370.8 1320,2375.4 Q1330,2379.4 1340,2383.1 Q1350,2387.4 1360,2393.1 Q1370,2400.4 1380,2408.3 Q1390,2415.2 1400,2419.7"/><path d="M -20,2430.4 Q-10,2433.7 0,2437.0 Q10,2439.5 20,2441.8 Q30,2444.7 40,2449.4 Q50,2456.3 60,2464.4 Q70,2472.2 80,2478.1 Q90,2481.4 100,2482.5 Q110,2482.9 120,2483.6 Q130,2484.8 140,2486.1 Q150,2486.4 160,2485.1 Q170,2482.5 180,2480.0 Q190,2478.8 200,2479.6 Q210,2481.8 220,2484.0 Q230,2484.7 240,2483.4 Q250,2480.5 260,2477.2 Q270,2474.8 280,2473.6 Q290,2473.2 300,2472.5 Q310,2470.9 320,2468.8 Q330,2467.2 340,2467.5 Q350,2470.4 360,2475.4 Q370,2480.9 380,2485.4 Q390,2488.0 400,2488.9 Q410,2489.0 420,2489.5 Q430,2490.7 440,2491.9 Q450,2492.2 460,2490.7 Q470,2487.9 480,2484.8 Q490,2483.0 500,2483.4 Q510,2485.7 520,2488.8 Q530,2491.0 540,2491.5 Q550,2490.6 560,2489.2 Q570,2488.5 580,2488.8 Q590,2489.7 600,2490.0 Q610,2489.0 620,2486.8 Q630,2484.5 640,2483.8 Q650,2485.5 660,2489.4 Q670,2494.3 680,2498.6 Q690,2501.3 700,2502.2 Q710,2502.4 720,2502.6 Q730,2503.2 740,2503.5 Q750,2502.5 760,2499.2 Q770,2493.6 780,2487.0 Q790,2480.9 800,2476.6 Q810,2474.2 820,2472.6 Q830,2470.6 840,2467.1 Q850,2462.3 860,2457.0 Q870,2452.5 880,2449.0 Q890,2446.1 900,2442.6 Q910,2437.7 920,2431.3 Q930,2424.5 940,2418.9 Q950,2415.9 960,2415.5 Q970,2416.9 980,2418.7 Q990,2419.7 1000,2419.8 Q1010,2419.9 1020,2420.7 Q1030,2422.6 1040,2425.0 Q1050,2426.6 1060,2426.2 Q1070,2423.6 1080,2419.7 Q1090,2416.2 1100,2414.4 Q1110,2414.8 1120,2416.6 Q1130,2418.5 1140,2419.5 Q1150,2419.7 1160,2419.9 Q1170,2421.0 1180,2423.6 Q1190,2427.1 1200,2430.3 Q1210,2431.9 1220,2431.6 Q1230,2430.3 1240,2429.5 Q1250,2430.7 1260,2434.2 Q1270,2439.5 1280,2445.2 Q1290,2450.4 1300,2454.7 Q1310,2458.9 1320,2463.9 Q1330,2470.1 1340,2476.9 Q1350,2482.8 1360,2486.4 Q1370,2487.2 1380,2485.8 Q1390,2483.7 1400,2482.3"/><path d="M -20,2511.0 Q-10,2513.6 0,2517.5 Q10,2523.2 20,2530.0 Q30,2536.7 40,2541.4 Q50,2543.5 60,2543.1 Q70,2541.6 80,2540.3 Q90,2540.0 100,2540.2 Q110,2540.1 120,2538.8 Q130,2536.2 140,2533.3 Q150,2531.5 160,2531.4 Q170,2532.8 180,2534.5 Q190,2534.8 200,2533.1 Q210,2529.5 220,2525.2 Q230,2521.8 240,2520.0 Q250,2519.5 260,2519.5 Q270,2519.0 280,2518.0 Q290,2517.4 300,2518.4 Q310,2521.7 320,2527.2 Q330,2533.4 340,2538.7 Q350,2541.9 360,2542.9 Q370,2542.8 380,2542.8 Q390,2543.7 400,2545.0 Q410,2545.9 420,2545.4 Q430,2543.6 440,2541.2 Q450,2539.8 460,2540.2 Q470,2542.5 480,2545.5 Q490,2547.7 500,2548.0 Q510,2546.3 520,2543.5 Q530,2541.0 540,2539.5 Q550,2538.9 560,2538.3 Q570,2536.7 580,2533.9 Q590,2531.0 600,2529.1 Q610,2529.6 620,2532.3 Q630,2536.2 640,2539.5 Q650,2541.1 660,2540.6 Q670,2538.7 680,2536.5 Q690,2534.8 700,2533.3 Q710,2531.0 720,2526.9 Q730,2520.9 740,2513.9 Q750,2507.3 760,2502.5 Q770,2499.8 780,2498.4 Q790,2496.8 800,2493.8 Q810,2489.2 820,2483.7 Q830,2478.6 840,2474.6 Q850,2471.7 860,2468.8 Q870,2465.1 880,2460.2 Q890,2455.0 900,2450.9 Q910,2449.4 920,2450.8 Q930,2454.4 940,2458.7 Q950,2462.2 960,2464.5 Q970,2466.1 980,2468.0 Q990,2470.8 1000,2474.3 Q1010,2477.4 1020,2478.9 Q1030,2478.3 1040,2476.4 Q1050,2474.6 1060,2474.4 Q1070,2476.4 1080,2480.1 Q1090,2484.1 1100,2487.2 Q1110,2488.9 1120,2489.8 Q1130,2491.0 1140,2493.3 Q1150,2496.4 1160,2499.4 Q1170,2501.2 1180,2501.1 Q1190,2499.7 1200,2498.6 Q1210,2499.3 1220,2502.5 Q1230,2507.6 1240,2513.6 Q1250,2518.9 1260,2523.0 Q1270,2526.4 1280,2529.9 Q1290,2534.2 1300,2539.1 Q1310,2543.4 1320,2545.7 Q1330,2545.4 1340,2542.8 Q1350,2539.4 1360,2536.7 Q1370,2535.6 1380,2536.0 Q1390,2536.7 1400,2536.6"/><path d="M -20,2587.8 Q-10,2592.9 0,2596.5 Q10,2597.3 20,2595.7 Q30,2592.8 40,2590.1 Q50,2588.6 60,2588.3 Q70,2588.3 80,2587.5 Q90,2585.5 100,2583.0 Q110,2581.0 120,2580.5 Q130,2581.5 140,2582.9 Q150,2583.3 160,2581.7 Q170,2578.0 180,2573.6 Q190,2569.8 200,2567.9 Q210,2567.9 220,2568.9 Q230,2569.9 240,2570.5 Q250,2571.1 260,2572.8 Q270,2576.5 280,2582.1 Q290,2588.6 300,2594.3 Q310,2597.7 320,2598.7 Q330,2598.1 340,2597.3 Q350,2597.3 360,2598.3 Q370,2599.3 380,2599.3 Q390,2598.0 400,2595.8 Q410,2594.0 420,2593.7 Q430,2595.0 440,2597.1 Q450,2598.4 460,2597.6 Q470,2594.5 480,2589.8 Q490,2585.1 500,2581.4 Q510,2579.0 520,2577.1 Q530,2574.8 540,2571.5 Q550,2567.9 560,2565.1 Q570,2564.2 580,2565.7 Q590,2568.5 600,2571.0 Q610,2571.7 620,2570.1 Q630,2566.8 640,2562.9 Q650,2559.7 660,2557.0 Q670,2554.4 680,2550.7 Q690,2545.4 700,2539.2 Q710,2533.3 720,2529.0 Q730,2527.0 740,2526.6 Q750,2526.2 760,2524.6 Q770,2521.1 780,2516.5 Q790,2511.8 800,2508.3 Q810,2506.2 820,2504.8 Q830,2503.1 840,2500.6 Q850,2497.9 860,2496.1 Q870,2496.6 880,2500.1 Q890,2505.9 900,2512.6 Q910,2518.4 920,2522.7 Q930,2525.7 940,2528.5 Q950,2531.8 960,2535.9 Q970,2540.0 980,2542.8 Q990,2543.9 1000,2543.4 Q1010,2542.8 1020,2543.5 Q1030,2546.2 1040,2550.7 Q1050,2555.7 1060,2559.6 Q1070,2561.7 1080,2562.3 Q1090,2562.5 1100,2563.4 Q1110,2565.1 1120,2567.0 Q1130,2568.0 1140,2567.4 Q1150,2565.5 1160,2563.6 Q1170,2563.3 1180,2565.5 Q1190,2570.0 1200,2575.5 Q1210,2580.4 1220,2584.0 Q1230,2586.2 1240,2588.0 Q1250,2590.3 1260,2593.2 Q1270,2595.9 1280,2597.1 Q1290,2596.0 1300,2592.8 Q1310,2588.7 1320,2585.3 Q1330,2583.8 1340,2584.1 Q1350,2585.2 1360,2585.7 Q1370,2584.8 1380,2582.8 Q1390,2580.7 1400,2579.3"/><path d="M -20,2643.0 Q-10,2639.5 0,2636.2 Q10,2634.3 20,2634.1 Q30,2634.8 40,2635.2 Q50,2634.4 60,2632.7 Q70,2631.1 80,2630.5 Q90,2631.3 100,2632.7 Q110,2633.4 120,2632.2 Q130,2628.9 140,2624.6 Q150,2620.8 160,2619.0 Q170,2619.4 180,2621.4 Q190,2623.8 200,2625.7 Q210,2627.3 220,2629.3 Q230,2632.8 240,2637.9 Q250,2643.9 260,2649.1 Q270,2652.1 280,2652.4 Q290,2650.9 300,2648.8 Q310,2647.5 320,2647.5 Q330,2648.0 340,2647.9 Q350,2646.6 360,2644.0 Q370,2641.4 380,2639.6 Q390,2639.3 400,2639.7 Q410,2639.5 420,2637.3 Q430,2632.6 440,2626.1 Q450,2619.3 460,2613.6 Q470,2609.6 480,2606.7 Q490,2604.0 500,2600.7 Q510,2597.1 520,2593.9 Q530,2592.4 540,2593.1 Q550,2595.3 560,2597.5 Q570,2598.1 580,2596.4 Q590,2592.7 600,2588.4 Q610,2584.7 620,2582.1 Q630,2580.3 640,2578.0 Q650,2574.8 660,2570.5 Q670,2566.4 680,2563.7 Q690,2563.2 700,2564.3 Q710,2565.7 720,2566.0 Q730,2564.4 740,2561.1 Q750,2557.5 760,2554.9 Q770,2554.0 780,2554.3 Q790,2555.0 800,2555.2 Q810,2555.0 820,2555.4 Q830,2557.9 840,2563.0 Q850,2570.4 860,2578.6 Q870,2586.0 880,2591.5 Q890,2595.2 900,2597.9 Q910,2601.0 920,2604.8 Q930,2608.9 940,2612.3 Q950,2614.1 960,2614.4 Q970,2614.1 980,2614.7 Q990,2617.2 1000,2621.3 Q1010,2626.0 1020,2629.6 Q1030,2631.1 1040,2630.6 Q1050,2629.1 1060,2627.9 Q1070,2627.5 1080,2627.8 Q1090,2627.6 1100,2626.3 Q1110,2623.8 1120,2621.1 Q1130,2619.9 1140,2621.1 Q1150,2624.7 1160,2629.6 Q1170,2634.2 1180,2637.3 Q1190,2638.7 1200,2639.1 Q1210,2639.7 1220,2641.0 Q1230,2642.6 1240,2643.3 Q1250,2642.2 1260,2639.3 Q1270,2635.4 1280,2632.2 Q1290,2630.8 1300,2631.5 Q1310,2633.4 1320,2635.0 Q1330,2635.1 1340,2633.7 Q1350,2631.5 1360,2629.7 Q1370,2629.0 1380,2628.9 Q1390,2628.6 1400,2627.0"/><path d="M -20,2681.7 Q-10,2683.4 0,2685.2 Q10,2685.9 20,2685.3 Q30,2684.2 40,2683.5 Q50,2684.0 60,2685.1 Q70,2685.8 80,2684.8 Q90,2681.9 100,2677.7 Q110,2673.8 120,2671.8 Q130,2672.3 140,2674.7 Q150,2677.8 160,2680.5 Q170,2682.3 180,2684.0 Q190,2686.5 200,2690.2 Q210,2694.7 220,2698.6 Q230,2700.5 240,2699.7 Q250,2696.7 260,2693.1 Q270,2690.2 280,2688.8 Q290,2688.4 300,2687.9 Q310,2686.3 320,2683.2 Q330,2679.5 340,2676.3 Q350,2674.1 360,2672.8 Q370,2671.1 380,2667.7 Q390,2661.8 400,2654.2 Q410,2646.1 420,2639.2 Q430,2634.3 440,2631.4 Q450,2629.2 460,2626.9 Q470,2624.2 480,2621.7 Q490,2620.5 500,2621.2 Q510,2623.6 520,2626.3 Q530,2627.7 540,2626.9 Q550,2624.1 560,2620.5 Q570,2617.5 580,2616.0 Q590,2615.8 600,2616.0 Q610,2615.5 620,2614.1 Q630,2612.4 640,2611.7 Q650,2612.8 660,2615.6 Q670,2618.8 680,2620.9 Q690,2621.0 700,2619.2 Q710,2616.6 720,2614.9 Q730,2614.9 740,2616.6 Q750,2619.1 760,2621.4 Q770,2623.3 780,2625.4 Q790,2628.8 800,2634.5 Q810,2642.3 820,2650.9 Q830,2658.7 840,2664.3 Q850,2667.6 860,2669.5 Q870,2671.3 880,2673.9 Q890,2677.1 900,2680.2 Q910,2682.0 920,2682.3 Q930,2681.7 940,2681.6 Q950,2683.0 960,2686.0 Q970,2689.6 980,2692.2 Q990,2692.6 1000,2690.6 Q1010,2687.2 1020,2683.8 Q1030,2681.4 1040,2680.0 Q1050,2678.9 1060,2677.1 Q1070,2674.5 1080,2671.7 Q1090,2670.0 1100,2670.6 Q1110,2673.7 1120,2678.3 Q1130,2682.9 1140,2685.9 Q1150,2686.9 1160,2686.7 Q1170,2686.3 1180,2686.6 Q1190,2687.7 1200,2688.5 Q1210,2688.2 1220,2686.3 Q1230,2683.4 1240,2680.9 Q1250,2680.2 1260,2681.6 Q1270,2684.3 1280,2686.9 Q1290,2688.0 1300,2687.2 Q1310,2685.0 1320,2682.8 Q1330,2681.4 1340,2680.9 Q1350,2680.7 1360,2679.5 Q1370,2677.2 1380,2674.2 Q1390,2672.0 1400,2672.0"/><path d="M -20,2740.4 Q-10,2739.4 0,2738.2 Q10,2737.8 20,2738.0 Q30,2738.2 40,2736.9 Q50,2733.9 60,2729.4 Q70,2725.1 80,2722.5 Q90,2722.4 100,2724.6 Q110,2727.6 120,2730.2 Q130,2731.7 140,2732.4 Q150,2733.1 160,2734.8 Q170,2737.2 180,2739.2 Q190,2739.7 200,2737.6 Q210,2733.4 220,2728.3 Q230,2724.0 240,2721.3 Q250,2720.2 260,2719.4 Q270,2717.7 280,2714.6 Q290,2710.3 300,2706.0 Q310,2702.5 320,2699.9 Q330,2697.3 340,2693.4 Q350,2687.4 360,2679.7 Q370,2671.6 380,2664.7 Q390,2660.2 400,2658.2 Q410,2657.6 420,2657.3 Q430,2656.6 440,2655.7 Q450,2655.7 460,2657.4 Q470,2660.6 480,2664.4 Q490,2667.3 500,2668.2 Q510,2667.0 520,2664.9 Q530,2663.3 540,2663.5 Q550,2665.4 560,2668.1 Q570,2670.5 580,2671.9 Q590,2672.7 600,2673.8 Q610,2676.1 620,2679.8 Q630,2684.1 640,2687.3 Q650,2688.5 660,2687.5 Q670,2685.4 680,2683.9 Q690,2684.1 700,2686.3 Q710,2689.7 720,2693.2 Q730,2696.2 740,2698.9 Q750,2702.4 760,2707.5 Q770,2714.5 780,2722.2 Q790,2729.1 800,2733.8 Q810,2735.9 820,2736.3 Q830,2736.3 840,2737.1 Q850,2739.0 860,2741.1 Q870,2742.6 880,2742.6 Q890,2741.6 900,2740.5 Q910,2740.6 920,2742.2 Q930,2744.4 940,2745.9 Q950,2745.2 960,2742.1 Q970,2737.2 980,2732.2 Q990,2728.2 1000,2725.8 Q1010,2724.3 1020,2722.9 Q1030,2720.9 1040,2718.6 Q1050,2717.2 1060,2717.8 Q1070,2720.8 1080,2725.5 Q1090,2730.4 1100,2733.8 Q1110,2735.0 1120,2734.6 Q1130,2733.8 1140,2733.7 Q1150,2734.7 1160,2736.0 Q1170,2736.8 1180,2736.3 Q1190,2734.7 1200,2733.2 Q1210,2733.1 1220,2734.9 Q1230,2738.1 1240,2741.2 Q1250,2742.8 1260,2742.0 Q1270,2739.5 1280,2736.3 Q1290,2733.8 1300,2732.4 Q1310,2731.6 1320,2730.5 Q1330,2728.3 1340,2725.4 Q1350,2723.0 1360,2722.4 Q1370,2724.3 1380,2728.2 Q1390,2732.7 1400,2736.2"/><path d="M -20,2787.5 Q-10,2786.4 0,2784.3 Q10,2780.7 20,2775.7 Q30,2770.6 40,2767.0 Q50,2765.9 60,2767.1 Q70,2769.6 80,2771.6 Q90,2772.4 100,2771.8 Q110,2770.7 120,2770.2 Q130,2770.4 140,2770.7 Q150,2769.9 160,2767.0 Q170,2762.2 180,2756.5 Q190,2751.5 200,2748.3 Q210,2747.0 220,2746.6 Q230,2745.6 240,2743.1 Q250,2739.1 260,2734.6 Q270,2730.7 280,2727.6 Q290,2725.0 300,2721.7 Q310,2716.8 320,2710.3 Q330,2703.4 340,2697.8 Q350,2694.7 360,2694.5 Q370,2696.3 380,2698.6 Q390,2700.5 400,2701.9 Q410,2703.6 420,2706.4 Q430,2710.7 440,2715.8 Q450,2720.3 460,2723.0 Q470,2723.6 480,2723.1 Q490,2723.1 500,2724.7 Q510,2728.3 520,2733.1 Q530,2737.8 540,2741.4 Q550,2743.8 560,2745.7 Q570,2748.3 580,2751.9 Q590,2756.0 600,2759.3 Q610,2760.6 620,2759.5 Q630,2757.1 640,2755.0 Q650,2754.5 660,2756.2 Q670,2759.5 680,2763.3 Q690,2766.5 700,2769.0 Q710,2771.6 720,2775.3 Q730,2780.4 740,2786.3 Q750,2791.7 760,2795.0 Q770,2795.6 780,2794.4 Q790,2792.6 800,2791.6 Q810,2792.1 820,2793.5 Q830,2794.7 840,2794.7 Q850,2793.5 860,2791.9 Q870,2791.0 880,2791.3 Q890,2792.4 900,2793.0 Q910,2791.8 920,2788.2 Q930,2782.6 940,2776.8 Q950,2772.1 960,2769.4 Q970,2768.3 980,2767.8 Q990,2767.1 1000,2766.1 Q1010,2765.5 1020,2766.5 Q1030,2769.7 1040,2774.6 Q1050,2779.8 1060,2783.7 Q1070,2785.4 1080,2785.0 Q1090,2784.0 1100,2783.6 Q1110,2784.5 1120,2786.3 Q1130,2788.0 1140,2788.7 Q1150,2788.2 1160,2787.3 Q1170,2787.3 1180,2788.9 Q1190,2791.7 1200,2794.5 Q1210,2795.7 1220,2794.4 Q1230,2790.9 1240,2786.3 Q1250,2782.1 1260,2779.2 Q1270,2777.3 1280,2775.6 Q1290,2773.2 1300,2770.1 Q1310,2767.1 1320,2765.5 Q1330,2766.1 1340,2768.7 Q1350,2772.1 1360,2774.5 Q1370,2774.8 1380,2772.9 Q1390,2769.9 1400,2767.0"/><path d="M -20,2813.7 Q-10,2807.9 0,2803.4 Q10,2801.2 20,2801.5 Q30,2803.2 40,2804.8 Q50,2804.9 60,2803.4 Q70,2801.0 80,2798.7 Q90,2797.4 100,2796.6 Q110,2795.4 120,2792.7 Q130,2788.4 140,2783.2 Q150,2778.7 160,2776.1 Q170,2775.6 180,2776.4 Q190,2776.9 200,2775.9 Q210,2773.2 220,2769.4 Q230,2765.9 240,2763.3 Q250,2761.5 260,2759.6 Q270,2756.6 280,2752.2 Q290,2747.5 300,2743.9 Q310,2742.8 320,2744.8 Q330,2749.0 340,2754.0 Q350,2758.5 360,2762.1 Q370,2765.2 380,2768.9 Q390,2773.8 400,2779.6 Q410,2785.1 420,2789.1 Q430,2791.2 440,2791.9 Q450,2792.8 460,2795.2 Q470,2799.6 480,2805.4 Q490,2811.3 500,2815.9 Q510,2818.8 520,2820.6 Q530,2822.2 540,2824.5 Q550,2827.3 560,2829.4 Q570,2829.8 580,2828.0 Q590,2824.7 600,2821.3 Q610,2819.6 620,2820.2 Q630,2822.8 640,2826.1 Q650,2829.0 660,2830.8 Q670,2832.2 680,2834.1 Q690,2837.1 700,2841.0 Q710,2844.6 720,2846.5 Q730,2846.1 740,2843.7 Q750,2840.7 760,2838.6 Q770,2838.3 780,2839.4 Q790,2840.9 800,2841.5 Q810,2840.7 820,2839.1 Q830,2837.7 840,2837.2 Q850,2837.7 860,2837.9 Q870,2836.7 880,2833.2 Q890,2827.8 900,2821.9 Q910,2817.2 920,2814.8 Q930,2814.5 940,2815.4 Q950,2816.2 960,2816.6 Q970,2817.1 980,2818.5 Q990,2821.7 1000,2826.4 Q1010,2831.6 1020,2835.6 Q1030,2837.4 1040,2837.0 Q1050,2835.5 1060,2834.6 Q1070,2835.0 1080,2836.8 Q1090,2838.9 1100,2840.2 Q1110,2840.3 1120,2839.5 Q1130,2838.9 1140,2839.3 Q1150,2840.9 1160,2842.5 Q1170,2842.6 1180,2840.1 Q1190,2835.2 1200,2828.8 Q1210,2822.7 1220,2818.0 Q1230,2814.9 1240,2812.5 Q1250,2809.8 1260,2806.5 Q1270,2803.0 1280,2800.5 Q1290,2799.8 1300,2801.1 Q1310,2803.4 1320,2804.9 Q1330,2804.4 1340,2801.7 Q1350,2797.5 1360,2793.4 Q1370,2790.4 1380,2788.5 Q1390,2787.1 1400,2785.0"/><path d="M -20,2830.6 Q-10,2832.1 0,2833.6 Q10,2833.9 20,2832.2 Q30,2829.4 40,2826.5 Q50,2824.6 60,2823.7 Q70,2823.2 80,2821.9 Q90,2819.3 100,2815.9 Q110,2813.0 120,2811.9 Q130,2813.0 140,2815.6 Q150,2818.2 160,2819.3 Q170,2818.4 180,2816.1 Q190,2813.5 200,2811.8 Q210,2811.1 220,2810.9 Q230,2810.0 240,2808.2 Q250,2805.8 260,2804.3 Q270,2805.1 280,2808.8 Q290,2814.9 300,2821.9 Q310,2828.2 320,2833.1 Q330,2836.9 340,2840.7 Q350,2845.3 360,2850.8 Q370,2856.3 380,2860.8 Q390,2863.4 400,2864.6 Q410,2865.6 420,2867.8 Q430,2871.9 440,2877.6 Q450,2883.4 460,2887.9 Q470,2890.3 480,2890.9 Q490,2890.8 500,2890.9 Q510,2891.4 520,2891.8 Q530,2890.8 540,2888.0 Q550,2883.6 560,2879.0 Q570,2875.9 580,2875.3 Q590,2877.0 600,2879.8 Q610,2882.3 620,2883.6 Q630,2884.0 640,2884.3 Q650,2885.5 660,2887.6 Q670,2889.9 680,2891.1 Q690,2890.3 700,2887.6 Q710,2884.4 720,2882.0 Q730,2881.6 740,2883.1 Q750,2885.4 760,2887.1 Q770,2887.3 780,2886.3 Q790,2884.8 800,2884.0 Q810,2884.0 820,2884.2 Q830,2883.2 840,2880.2 Q850,2875.4 860,2870.0 Q870,2865.6 880,2863.6 Q890,2864.0 900,2866.0 Q910,2868.2 920,2869.8 Q930,2870.8 940,2872.2 Q950,2874.7 960,2878.6 Q970,2883.0 980,2886.5 Q990,2887.9 1000,2886.9 Q1010,2884.7 1020,2882.8 Q1030,2882.3 1040,2883.4 Q1050,2885.3 1060,2886.7 Q1070,2886.7 1080,2885.4 Q1090,2883.7 1100,2882.6 Q1110,2882.3 1120,2882.1 Q1130,2880.7 1140,2876.9 Q1150,2870.6 1160,2862.8 Q1170,2855.1 1180,2849.0 Q1190,2844.8 1200,2842.1 Q1210,2839.6 1220,2836.6 Q1230,2833.3 1240,2830.4 Q1250,2829.1 1260,2829.7 Q1270,2831.4 1280,2832.7 Q1290,2832.3 1300,2829.7 Q1310,2825.6 1320,2821.5 Q1330,2818.7 1340,2817.6 Q1350,2817.6 1360,2817.6 Q1370,2816.7 1380,2815.1 Q1390,2813.5 1400,2813.2"/></svg>